<?xml version="1.0" standalone="no"?>
<!DOCTYPE svg PUBLIC "-//W3C//DTD SVG 20010904//EN"
 "http://www.w3.org/TR/2001/REC-SVG-20010904/DTD/svg10.dtd">
<svg version="1.0" xmlns="http://www.w3.org/2000/svg"
 width="546.000000pt" height="522.000000pt" viewBox="0 0 546.000000 522.000000"
 preserveAspectRatio="xMidYMid meet">

<g transform="translate(0.000000,522.000000) scale(0.100000,-0.100000)"
fill="#000000" stroke="none">
<path d="M0 2610 l0 -2610 2730 0 2730 0 0 2610 0 2610 -2730 0 -2730 0 0
-2610z m3340 2459 c39 -44 57 -58 69 -53 24 11 93 13 112 3 20 -10 43 -63 36
-81 -3 -8 -6 -5 -6 7 -1 11 -11 32 -24 46 -26 31 -78 33 -117 6 -13 -9 -35
-17 -47 -17 -13 0 -31 -8 -41 -18 -18 -18 -19 -18 -33 12 l-14 31 -6 -60 c-5
-44 -6 -37 -3 27 2 48 0 89 -5 93 -5 3 -7 -5 -4 -17 4 -18 3 -20 -6 -12 -19
17 -10 69 12 70 12 1 13 1 2 -3 -19 -6 -19 -17 0 -33 8 -7 15 -21 15 -31 0
-10 5 -21 10 -24 12 -8 12 -8 0 33 -8 30 -7 32 6 21 9 -7 23 -14 33 -15 11 -2
7 5 -11 21 -16 13 -28 29 -28 35 0 16 -58 8 -130 -18 -8 -3 -19 -6 -25 -6 -30
-4 -107 -50 -115 -69 -5 -12 -9 -16 -9 -9 -1 6 -6 12 -12 12 -5 0 -7 -5 -3
-12 4 -7 3 -8 -5 -4 -15 10 -43 -13 -34 -27 3 -6 1 -7 -5 -3 -7 4 -12 1 -12
-9 0 -9 -4 -14 -9 -11 -13 8 -28 -14 -40 -61 -6 -23 -16 -45 -21 -48 -18 -11
-11 25 15 75 40 79 156 156 276 184 33 8 64 17 67 20 3 3 17 6 32 6 21 0 40
-15 80 -61z m-173 -31 c-3 -8 -6 -5 -6 6 -1 11 2 17 5 13 3 -3 4 -12 1 -19z
m-49 -19 c3 -11 1 -11 -7 1 -9 13 -11 12 -12 -5 -1 -19 -1 -19 -6 -1 -5 19 -6
18 -20 -5 -8 -13 -12 -16 -9 -6 3 10 6 23 6 28 0 14 44 4 48 -12z m99 -19 c3
-17 10 -33 14 -36 5 -3 9 -10 9 -15 0 -6 -4 -8 -9 -5 -5 4 -12 0 -14 -6 -5
-13 -11 16 -8 39 1 7 -3 22 -9 33 -7 14 -8 20 0 20 6 0 13 -14 17 -30z m-37
-10 c0 -5 -5 -10 -11 -10 -5 0 -7 5 -4 10 3 6 8 10 11 10 2 0 4 -4 4 -10z m57
-12 c-3 -8 -6 -5 -6 6 -1 11 2 17 5 13 3 -3 4 -12 1 -19z m-255 -20 c-7 -7
-12 -8 -12 -2 0 6 3 14 7 17 3 4 9 5 12 2 2 -3 -1 -11 -7 -17z m55 16 c-3 -4
-2 -15 4 -25 7 -15 6 -17 -6 -13 -21 8 -18 44 3 44 3 0 2 -3 -1 -6z m98 -24
c3 -5 1 -10 -4 -10 -6 0 -11 5 -11 10 0 6 2 10 4 10 3 0 8 -4 11 -10z m39 -29
c-8 -9 -22 12 -17 26 6 15 7 14 13 -3 4 -10 6 -21 4 -23z m390 -28 c-8 -33
-32 -63 -51 -63 -29 0 -9 -17 59 -50 81 -38 132 -85 166 -150 13 -25 16 -36 8
-26 -15 18 -16 18 -16 2 0 -13 -10 -5 -35 24 -19 23 -35 45 -35 48 0 4 -14 15
-31 25 -20 11 -29 22 -25 32 3 8 4 15 2 15 -3 0 -13 3 -23 7 -16 6 -17 5 -3
-12 12 -15 8 -14 -20 5 -19 13 -45 32 -57 43 -14 13 -23 16 -23 8 0 -7 -5 -9
-10 -6 -6 4 9 24 35 47 25 22 45 48 45 59 0 10 5 19 10 19 6 0 8 -11 4 -27z
m-568 -20 c-7 -7 -26 7 -26 19 0 6 6 6 15 -2 9 -7 13 -15 11 -17z m169 7 c8
-13 -5 -13 -25 0 -13 8 -13 10 2 10 9 0 20 -4 23 -10z m40 0 c3 -5 1 -10 -4
-10 -6 0 -11 5 -11 10 0 6 2 10 4 10 3 0 8 -4 11 -10z m-298 -22 c-3 -8 -6 -5
-6 6 -1 11 2 17 5 13 3 -3 4 -12 1 -19z m219 11 c3 -6 -1 -18 -10 -27 -13 -14
-18 -14 -25 -4 -5 9 -17 11 -36 6 -18 -5 -26 -3 -22 4 4 5 20 9 37 8 19 -1 30
3 30 11 0 16 16 17 26 2z m59 -19 c-3 -5 -1 -10 5 -10 6 0 8 -5 4 -11 -4 -8
-9 -7 -15 2 -7 12 -3 29 7 29 3 0 2 -4 -1 -10z m-117 -36 c11 -12 9 -14 -12
-14 -14 0 -28 -4 -31 -10 -4 -6 5 -10 20 -10 14 0 24 -4 21 -8 -3 -4 -21 -6
-40 -4 -22 3 -33 8 -29 15 4 6 0 8 -10 4 -11 -4 -14 -2 -11 8 3 8 13 11 22 8
14 -5 15 -3 5 8 -7 7 -13 16 -13 19 0 11 64 -2 78 -16z m83 2 c-9 -11 -8 -15
4 -20 8 -3 15 -11 15 -18 0 -9 -3 -8 -10 2 -5 8 -10 13 -11 10 0 -3 -2 -12 -4
-21 -2 -13 9 -16 65 -18 38 -1 71 3 74 8 8 12 47 -3 92 -36 31 -22 111 -167
135 -243 14 -47 21 -133 9 -105 -7 13 -8 -11 -4 -70 7 -93 13 -124 15 -64 0
25 2 29 8 15 9 -23 2 -76 -10 -76 -15 0 -10 -32 8 -52 17 -20 39 -25 27 -7 -3
6 5 4 19 -6 17 -11 36 -14 59 -10 46 9 88 -24 88 -67 0 -97 -49 -155 -160
-191 l-75 -24 -13 23 c-13 25 -42 33 -43 12 0 -7 -4 -5 -7 5 -7 16 -10 14 -30
-13 -17 -22 -19 -30 -8 -30 14 0 18 -14 32 -129 8 -64 31 -92 75 -89 22 2 35
10 42 26 8 16 13 19 19 10 6 -10 8 -8 8 5 0 20 15 23 26 5 4 -6 2 -14 -4 -16
-7 -2 -12 -13 -13 -25 0 -12 -3 -16 -6 -9 -7 17 -16 15 -48 -12 l-29 -25 23
-107 c12 -60 28 -125 36 -146 10 -30 10 -36 1 -28 -28 23 -219 -74 -214 -108
2 -11 -8 -18 -32 -23 -37 -8 -64 -34 -217 -218 -43 -52 -107 -119 -143 -149
-36 -30 -77 -65 -91 -77 -14 -13 -35 -24 -45 -23 -66 2 -203 -16 -208 -28 -7
-19 -26 -18 -26 1 0 9 -9 15 -23 15 -52 0 -126 31 -152 63 -21 27 -27 29 -35
17 -18 -27 -12 -105 10 -133 11 -14 20 -32 20 -41 0 -9 8 -16 20 -16 17 0 18
-3 9 -18 -8 -13 0 -55 36 -185 53 -194 75 -248 142 -349 26 -40 50 -78 53 -83
3 -6 14 -22 25 -36 l19 -25 45 65 c24 36 73 103 108 148 64 83 198 341 194
375 -1 9 3 19 9 23 5 3 10 1 10 -6 0 -7 9 -4 23 8 12 12 42 24 67 27 25 3 101
13 168 22 167 23 259 16 332 -25 31 -17 66 -42 80 -55 l23 -26 -18 -62 c-10
-35 -35 -88 -56 -118 -20 -30 -53 -88 -73 -128 -36 -71 -88 -152 -130 -201
-12 -13 -15 -21 -8 -16 11 6 12 3 3 -14 -6 -11 -21 -26 -32 -32 -11 -6 -19
-13 -16 -16 3 -2 -18 -30 -46 -61 -66 -74 -290 -292 -299 -292 -16 0 -7 26 13
38 23 15 49 70 49 106 0 33 -31 68 -63 69 -15 1 -27 3 -27 4 0 2 16 24 36 50
86 112 107 214 57 274 -49 58 -139 76 -209 43 -53 -25 -97 -83 -194 -253 l-87
-153 -54 -22 c-69 -27 -87 -58 -64 -112 18 -44 11 -177 -11 -195 -24 -19 -34
1 -34 67 0 128 -68 214 -169 214 l-39 0 -31 74 c-17 41 -31 78 -31 81 0 4 -9
18 -20 32 -11 14 -20 37 -20 52 0 24 -24 137 -70 331 -9 41 -18 113 -19 160
-3 133 -20 313 -32 325 -7 7 -8 2 -4 -16 4 -18 0 -40 -14 -65 l-20 -39 -2 105
c-1 82 -3 94 -8 54 -3 -28 -13 -58 -22 -67 -13 -12 -18 -49 -23 -184 -17 -436
-36 -595 -77 -648 -25 -31 -49 -32 -77 -2 -33 35 -50 85 -76 229 -35 195 -41
309 -22 456 9 68 14 147 12 175 -4 42 -3 46 4 22 7 -25 9 -20 6 27 -1 33 1 55
7 51 5 -3 8 12 7 33 -2 22 0 46 4 55 9 21 2 96 -9 106 -4 5 -4 1 0 -7 8 -13 6
-13 -8 -1 -9 7 -14 17 -11 22 6 10 -68 46 -105 52 -22 3 -41 23 -40 42 0 6 6
-1 14 -15 8 -14 14 -20 15 -15 0 17 -30 55 -44 55 -23 0 -56 37 -55 61 0 22 1
23 9 4 8 -18 9 -17 9 6 1 24 -20 55 -30 45 -2 -2 -5 5 -6 17 -1 28 -18 65 -42
97 -10 14 -22 45 -25 70 -3 26 -2 37 3 26 7 -19 8 -19 16 0 4 10 7 25 6 32 -2
15 11 16 27 0 9 -9 15 -9 23 -1 8 8 6 19 -7 42 -16 27 -19 28 -31 13 -13 -15
-13 -14 -7 8 7 29 24 51 24 31 0 -7 4 -10 9 -6 6 3 15 -4 21 -15 12 -23 24
-19 41 12 10 18 9 20 -8 16 -13 -3 -24 2 -32 14 -6 10 -16 16 -21 13 -12 -7
-13 8 -2 19 4 4 7 18 8 29 3 93 5 102 14 87 5 -8 10 -28 10 -45 0 -36 6 -45
42 -68 34 -21 54 -22 62 -1 7 18 26 10 26 -12 0 -8 -9 -14 -19 -14 -11 0 -23
-5 -27 -12 -4 -6 -3 -8 3 -5 5 3 35 0 66 -7 31 -7 54 -9 51 -5 -3 5 14 9 38
10 24 0 52 4 63 8 17 7 12 11 -30 24 l-50 16 43 0 c23 1 42 -3 42 -9 0 -5 9
-10 20 -10 11 0 20 5 20 11 0 8 4 8 14 0 11 -9 20 -10 35 -1 12 6 37 10 57 8
26 -2 40 3 50 17 18 25 18 39 -1 31 -8 -3 -15 -1 -15 4 0 13 26 13 51 0 25
-14 44 -3 28 16 -15 19 -83 18 -99 -1 -11 -13 -14 -13 -26 2 -7 10 -14 14 -15
8 -1 -5 -3 -14 -4 -20 -2 -5 -3 -15 -4 -20 -2 -17 -39 -35 -57 -28 -13 5 -9 9
17 17 27 9 33 16 34 40 0 20 6 30 18 32 9 1 17 -2 17 -7 0 -5 7 -9 16 -9 8 0
13 3 11 8 -3 4 19 7 49 8 30 0 59 5 66 12 8 8 17 8 30 1 10 -5 24 -6 31 -2 6
4 20 6 30 5 9 -2 17 1 17 6 0 5 19 14 42 21 26 8 37 16 29 21 -10 5 -9 9 4 14
9 3 13 11 9 17 -4 8 -3 9 4 5 7 -4 20 -2 29 3 16 9 15 10 -7 11 l-25 1 28 15
c39 21 33 24 -19 8 -48 -14 -78 -33 -69 -42 2 -3 11 0 19 7 11 9 15 8 20 -4 4
-10 -1 -15 -16 -15 -12 0 -18 -3 -15 -6 4 -4 -14 -18 -39 -31 -43 -23 -47 -23
-64 -8 -11 10 -24 14 -32 9 -7 -4 -3 4 10 18 12 13 22 33 23 44 0 10 3 13 6 7
2 -7 12 -13 21 -13 13 0 13 -2 -2 -13 -11 -8 -16 -20 -13 -28 4 -10 6 -9 6 5
1 15 6 17 29 11 21 -5 24 -4 15 6 -15 15 38 53 99 70 66 18 98 33 87 40 -6 3
-33 -2 -61 -13 -27 -10 -53 -16 -58 -13 -4 3 -10 -1 -13 -7 -6 -20 -37 10 -37
36 -1 21 -1 21 -12 1 -7 -11 -18 -26 -25 -33 -7 -7 -13 -22 -13 -33 0 -19 0
-19 -20 1 -11 11 -20 24 -20 29 0 14 -15 17 -66 12 -30 -2 -42 -6 -33 -12 7
-4 10 -11 6 -16 -4 -4 -17 -2 -27 5 -25 15 -40 15 -63 -2 -17 -13 -14 -51 4
-40 5 3 9 0 9 -5 0 -6 -7 -11 -16 -11 -22 0 -12 -24 12 -27 19 -3 19 -3 0 5
-18 8 -18 9 -2 15 10 4 16 13 13 21 -6 16 11 36 31 36 12 0 12 -2 1 -16 -12
-15 -11 -16 11 -9 45 14 89 23 94 18 8 -8 -6 -33 -15 -27 -5 3 -6 -2 -3 -10 3
-9 -2 -17 -15 -21 -28 -9 -27 -35 1 -35 18 0 19 -3 10 -12 -17 -17 -60 -17
-66 -1 -3 7 -20 13 -38 13 -33 -1 -33 -1 -9 -14 l24 -13 -27 -5 c-14 -3 -26
-1 -26 4 0 19 -25 1 -30 -22 -3 -13 -12 -25 -20 -28 -11 -2 -12 -1 -3 5 13 9
14 53 1 53 -4 0 -14 -10 -23 -22 -15 -22 -14 -24 6 -40 l21 -18 -30 0 c-31 0
-33 9 -17 65 9 33 -8 48 -45 40 -24 -5 -29 -10 -19 -16 11 -7 10 -9 -3 -9 -10
0 -18 -6 -18 -14 0 -8 -7 -17 -16 -20 -24 -9 -36 -7 -28 6 4 7 3 8 -4 4 -23
-14 -12 -28 17 -24 17 2 28 1 25 -3 -2 -5 11 -11 31 -15 19 -3 35 -9 35 -13
-1 -16 -19 -33 -29 -27 -6 4 -9 12 -6 17 4 5 -8 9 -25 9 -18 0 -29 4 -25 10 4
6 -7 10 -25 10 -20 0 -29 -4 -24 -11 3 -6 1 -15 -5 -19 -7 -4 -13 -17 -14 -29
-1 -21 -2 -21 -14 -5 -8 10 -10 27 -6 38 3 12 7 31 7 44 1 26 27 45 53 40 10
-2 28 7 42 20 13 12 29 22 35 21 39 -5 99 2 87 10 -21 13 -97 5 -123 -13 -21
-15 -24 -15 -35 0 -11 15 -13 15 -18 2 -4 -9 -22 -24 -41 -34 -19 -10 -34 -22
-34 -27 0 -4 -9 -17 -20 -29 -11 -12 -20 -28 -20 -35 0 -18 -26 -17 -33 1 -3
8 1 20 9 26 25 22 17 43 -13 36 -26 -6 -26 -5 -10 8 13 10 16 21 11 40 -5 20
-2 26 10 26 9 0 16 -4 16 -9 0 -14 33 -23 40 -10 5 6 9 2 13 -11 5 -21 6 -21
25 -2 11 11 26 22 33 24 11 4 9 11 -8 27 -13 12 -24 19 -24 16 -1 -3 -2 -11
-3 -17 -2 -16 -23 -12 -42 7 -12 12 -9 15 23 20 21 4 48 10 61 16 31 12 31 12
25 -10 -3 -11 0 -28 6 -38 10 -17 10 -17 11 3 0 26 25 49 41 38 8 -4 9 -3 5 4
-5 8 2 12 18 12 14 0 26 5 26 11 0 7 -12 8 -32 4 -23 -4 -28 -3 -18 4 18 11
110 26 110 17 0 -4 -12 -11 -26 -17 -33 -12 -26 -22 10 -13 14 3 26 12 26 20
0 18 177 24 256 8 26 -5 32 -2 42 20 9 21 18 26 44 25 18 -1 25 -3 15 -6 -9
-2 -15 -9 -11 -14 3 -5 10 -7 15 -4 5 4 9 1 9 -5 0 -6 5 -8 10 -5 6 4 8 11 5
16 -3 5 1 6 9 3 9 -3 14 -9 11 -14 -2 -4 8 -5 23 -2 27 5 27 6 -13 24 -40 19
-37 19 45 3 23 -4 30 -3 22 3 -10 7 -3 11 25 15 50 9 78 9 70 0 -4 -3 2 -12
13 -20 11 -8 20 -22 20 -31 0 -10 -3 -13 -8 -7 -10 15 -43 16 -75 3 -19 -7
-24 -14 -16 -18 8 -6 2 -17 -20 -39 l-32 -32 27 7 c19 5 25 4 20 -5 -5 -7 1
-11 16 -11 19 0 20 2 8 10 -13 9 -13 11 0 20 8 6 26 13 40 16 44 10 70 27 70
46 0 10 4 18 10 18 5 0 7 7 4 15 -5 11 -10 13 -19 5 -9 -7 -16 -6 -24 4 -17
21 3 56 32 55 l22 0 -22 -9 c-15 -6 -23 -17 -22 -32 1 -18 2 -19 6 -5 6 23 73
21 73 -2 0 -11 5 -8 16 8 11 16 24 22 39 18 16 -3 22 0 18 10 -7 17 23 18 30
1 4 -10 8 -10 14 -2 4 7 17 13 27 15 27 5 33 29 7 29 -20 0 -20 1 -4 20 19 21
43 27 43 9 0 -5 5 -7 12 -3 6 4 17 -1 25 -11 9 -13 13 -15 13 -5 0 11 3 11 16
-2 18 -18 10 -42 -12 -34 -12 4 -12 2 -4 -14 10 -19 75 -39 87 -27 11 12 -19
65 -60 105 -42 41 -110 77 -126 67 -5 -2 -14 -25 -20 -49 -15 -60 -49 -86
-110 -85 l-46 2 52 6 c28 4 55 10 60 14 4 5 11 48 14 95 6 93 32 168 72 210
17 18 19 25 8 31 -11 7 -8 12 10 22 22 11 23 11 10 -4 -11 -14 -11 -17 0 -17
7 0 3 -11 -12 -27 l-24 -27 32 22 c49 35 125 111 118 121 -3 5 -1 11 3 13 5 1
6 22 4 45 -2 24 -8 41 -12 38 -5 -3 -11 4 -15 15 -10 33 -35 23 -56 -22 l-20
-43 6 40 c4 26 16 49 34 65 16 14 43 46 61 72 l33 47 -37 55 c-46 69 -51 83
-31 83 9 0 14 -6 11 -14 -3 -8 4 -29 17 -48 22 -34 37 -44 37 -25 0 13 27 13
35 0 3 -5 0 -7 -8 -4 -8 3 -18 1 -22 -5 -3 -6 -2 -11 3 -11 6 0 8 -9 5 -20 -3
-11 -2 -20 1 -20 4 0 43 17 86 38 65 30 80 41 80 60 0 27 19 66 27 58 3 -3 1
-12 -6 -20z m-654 -4 c7 -5 9 -13 3 -22 -6 -10 -24 -13 -59 -11 -61 3 -93 -12
-89 -42 3 -20 11 -23 77 -28 65 -5 77 -9 98 -33 30 -36 29 -59 -6 -98 -28 -31
-33 -33 -100 -33 -53 0 -74 4 -88 17 -28 29 -5 41 50 26 50 -13 92 -2 103 27
12 30 -15 45 -83 45 -55 0 -67 3 -89 26 -32 31 -27 67 17 107 25 23 37 27 92
27 34 0 67 -4 74 -8z m707 -17 c-4 -8 -8 -15 -10 -15 -2 0 -4 7 -4 15 0 8 4
15 10 15 5 0 7 -7 4 -15z m59 -12 c3 -5 -5 -8 -18 -8 -13 0 -21 3 -18 8 2 4
10 7 18 7 8 0 16 -3 18 -7z m-1053 -11 c0 -4 -16 -31 -35 -59 -19 -29 -35 -57
-35 -62 0 -6 35 -36 78 -68 l77 -57 -32 -9 c-28 -8 -37 -6 -70 20 -21 17 -50
38 -65 47 -27 17 -27 17 -43 -14 -11 -22 -14 -44 -10 -70 6 -35 4 -39 -17 -42
-21 -3 -25 5 -59 122 -20 69 -34 128 -32 133 2 4 14 7 27 7 18 0 24 -9 35 -50
7 -27 16 -50 19 -50 4 0 29 34 57 75 28 43 58 76 70 78 11 2 23 5 28 6 4 0 7
-2 7 -7z m827 -18 c-3 -3 -12 -4 -19 -1 -8 3 -5 6 6 6 11 1 17 -2 13 -5z m-8
-17 c-2 -1 -13 -9 -24 -17 -19 -14 -19 -14 -6 3 7 9 18 17 24 17 6 0 8 -1 6
-3z m-1117 -177 c26 -58 47 -113 47 -122 2 -38 -43 -31 -149 21 -57 28 -104
50 -106 48 -1 -1 13 -38 32 -81 27 -62 32 -81 22 -87 -30 -20 -32 -17 -136
223 -2 3 6 12 18 18 18 10 38 3 131 -45 61 -31 112 -55 114 -53 1 1 -14 42
-35 90 -37 86 -38 100 0 95 8 -1 35 -49 62 -107z m1719 39 c5 -11 14 -18 19
-16 5 1 21 -11 36 -28 18 -21 24 -24 19 -10 -15 42 -17 65 -6 65 7 0 10 -4 6
-9 -3 -5 6 -34 20 -65 29 -64 30 -66 10 -66 -19 0 -19 4 10 -74 45 -119 28
-95 -66 91 -47 95 -65 123 -80 123 -5 0 -6 -8 -3 -17 3 -10 -6 0 -20 22 -14
22 -26 44 -26 48 0 12 70 -43 81 -64z m49 7 c0 -12 -14 5 -31 39 -8 16 -6 15
10 -4 12 -13 21 -28 21 -35z m114 -88 c14 -20 15 -21 10 -3 -15 48 26 -25 61
-109 30 -73 37 -103 40 -172 3 -86 14 -114 45 -114 23 0 100 -57 100 -74 0 -8
-15 0 -37 20 -20 19 -46 34 -57 33 -12 0 -15 -3 -8 -6 6 -2 10 -9 6 -14 -3 -5
2 -9 10 -9 16 0 44 -46 40 -67 -1 -7 -2 -18 -3 -24 -2 -19 -31 11 -29 29 3 38
-3 50 -31 62 -21 8 -27 17 -24 31 4 12 0 19 -10 19 -14 0 -26 36 -28 89 l-1
26 -8 -25 c-7 -23 -8 -22 -9 11 -2 59 -32 180 -47 186 -9 3 -12 14 -8 29 4 17
1 26 -10 30 -9 3 -16 14 -16 24 0 11 -4 22 -10 25 -5 3 -10 10 -10 16 0 16 17
10 34 -13z m-914 -8 c-24 -15 -37 -11 -16 5 11 8 22 12 25 9 3 -3 -1 -9 -9
-14z m-1288 -102 c34 -62 64 -115 66 -118 1 -4 -8 -11 -21 -17 -21 -10 -26 -5
-85 98 -34 60 -62 113 -62 118 0 8 25 28 37 31 0 0 30 -50 65 -112z m1308 62
c6 -12 8 -31 4 -43 -7 -24 -53 -77 -66 -77 -12 0 3 124 16 132 19 13 35 9 46
-12z m-79 -80 c-9 -24 -10 -24 -10 7 -1 17 2 40 7 50 6 15 7 14 10 -7 2 -14
-2 -37 -7 -50z m-1382 -6 c22 -28 28 -69 11 -79 -21 -13 -8 -24 45 -42 59 -19
67 -31 38 -50 -14 -9 -29 -7 -75 12 -48 19 -60 21 -74 10 -19 -14 -14 -32 22
-82 14 -20 14 -22 -6 -33 -12 -6 -23 -10 -24 -8 -16 22 -134 196 -140 205 -5
9 14 26 55 53 76 49 118 53 148 14z m2949 -118 c46 -44 53 -75 26 -114 -11
-15 -25 -22 -50 -22 l-34 0 -1 -52 c-1 -29 -1 -57 0 -62 1 -5 -8 -2 -21 6 -20
14 -23 23 -20 76 2 44 -1 62 -13 72 -13 11 -21 8 -50 -20 -30 -29 -55 -34 -55
-9 0 5 32 50 72 99 80 100 69 98 146 26z m-3149 -85 c49 -49 60 -94 36 -141
-16 -31 -122 -140 -137 -140 -3 0 -46 43 -94 96 l-89 96 50 46 c71 64 104 82
153 82 36 0 48 -6 81 -39z m3341 -89 c96 -48 108 -191 20 -237 -69 -36 -153
-7 -190 64 -24 48 -25 82 -5 122 33 63 108 85 175 51z m-714 -50 c6 -4 14 -16
18 -27 6 -17 4 -16 -21 5 -15 14 -30 26 -32 28 -2 1 2 2 10 2 8 0 19 -4 25 -8z
m-30 -77 c3 -14 19 -34 35 -46 16 -11 29 -25 29 -32 0 -6 -6 -3 -13 8 -10 12
-22 16 -40 13 -15 -3 -29 0 -32 6 -3 6 -3 -1 0 -16 3 -15 1 -29 -4 -32 -15
-10 -23 48 -11 79 8 22 8 30 -2 37 -9 5 -6 8 9 8 16 0 25 -8 29 -25z m123 -25
c-1 -17 -3 -19 -6 -7 -2 9 -8 17 -13 17 -4 0 -6 9 -3 21 7 27 23 5 22 -31z
m-39 4 c0 -13 5 -24 10 -24 6 0 10 -11 10 -25 0 -14 4 -25 9 -25 5 0 4 -24 -3
-52 -10 -46 -16 -54 -42 -63 -17 -6 -38 -16 -47 -24 -12 -9 -17 -10 -17 -2 0
7 16 19 35 27 19 8 42 25 51 39 15 23 15 29 -5 91 -23 74 -26 98 -11 89 6 -3
10 -17 10 -31z m110 -19 c-12 -19 -32 -40 -43 -47 -15 -8 -10 2 16 30 20 23
37 50 38 60 0 10 3 12 6 5 2 -7 -5 -29 -17 -48z m-1556 -66 c-5 -8 1 -10 20
-7 14 3 26 1 26 -3 0 -5 -13 -9 -30 -9 -29 0 -38 9 -23 23 10 11 15 8 7 -4z
m2317 -19 c43 -22 79 -71 79 -107 0 -14 -6 -23 -15 -23 -8 0 -15 7 -15 15 0 8
-14 30 -31 50 -25 28 -38 35 -69 35 -30 0 -44 -6 -64 -31 -15 -17 -26 -43 -26
-59 0 -31 43 -90 66 -90 8 0 14 -9 14 -20 0 -42 -66 -9 -99 50 -50 89 2 197
97 199 12 1 41 -8 63 -19z m-3991 -29 c21 -21 27 -34 23 -51 -6 -22 -4 -23 27
-16 43 8 45 11 32 40 -8 19 -8 27 3 36 10 8 19 5 38 -16 21 -22 28 -24 45 -15
18 9 23 8 33 -11 10 -18 8 -24 -7 -35 -10 -7 -21 -13 -26 -13 -4 0 -8 -10 -8
-22 0 -48 -74 -128 -118 -128 -23 0 -72 57 -72 84 0 21 -5 26 -24 26 -49 0
-76 52 -52 99 30 57 65 64 106 22z m792 2 c-6 -2 -9 -10 -5 -16 4 -7 -2 -5
-13 3 -10 8 -16 10 -12 6 4 -5 -1 -17 -13 -27 -14 -12 -18 -25 -14 -46 5 -27
5 -27 -5 -4 -19 43 7 91 49 90 14 0 20 -3 13 -6z m2298 -28 c0 -2 -6 -5 -13
-8 -8 -3 -14 1 -14 8 0 7 6 11 14 8 7 -3 13 -6 13 -8z m-2047 -76 c-6 -6 -9
-18 -6 -25 3 -8 1 -14 -5 -14 -5 0 -13 7 -16 16 -3 8 -10 12 -16 9 -5 -3 -10
-1 -10 5 0 7 8 9 19 5 11 -3 22 -1 26 5 3 5 9 10 13 10 3 0 1 -5 -5 -11z
m1887 -29 c8 -5 11 -10 5 -10 -5 0 -17 5 -25 10 -8 5 -10 10 -5 10 6 0 17 -5
25 -10z m100 -15 c0 -51 -126 -83 -195 -49 -16 8 -21 11 -10 8 58 -18 112 -16
156 7 l44 23 -35 7 c-30 5 -31 7 -8 8 15 0 30 6 33 11 10 16 15 12 15 -15z
m-2186 -10 c3 -8 1 -15 -4 -15 -6 0 -10 7 -10 15 0 8 2 15 4 15 2 0 6 -7 10
-15z m3306 -31 c0 -6 -18 -21 -41 -33 -22 -13 -37 -27 -32 -31 4 -4 39 -18 76
-31 54 -18 72 -30 84 -53 14 -27 14 -28 -3 -21 -53 20 -117 36 -123 28 -4 -4
-20 -41 -36 -81 -26 -66 -30 -72 -42 -56 -17 24 -17 34 7 94 26 65 25 68 -7
81 -22 8 -34 7 -56 -6 -28 -17 -42 -13 -49 12 -2 7 44 39 102 72 101 58 119
62 120 25z m-3326 -17 c-3 -9 -11 -17 -16 -17 -6 0 -7 7 -4 16 3 9 6 21 6 27
0 8 3 8 10 1 6 -6 8 -18 4 -27z m2101 15 c-3 -3 -11 0 -18 7 -9 10 -8 11 6 5
10 -3 15 -9 12 -12z m-1855 -12 c0 -5 -4 -10 -10 -10 -5 0 -10 5 -10 10 0 6 5
10 10 10 6 0 10 -4 10 -10z m146 1 c-5 -8 -56 -3 -56 5 0 2 14 4 31 4 16 0 28
-4 25 -9z m-231 -41 c29 -7 28 -8 -10 -8 -22 0 -49 3 -60 8 -17 7 -15 9 10 8
17 0 44 -4 60 -8z m-1006 -136 c2 -2 -4 -15 -13 -29 -12 -19 -22 -24 -39 -20
-19 5 -26 -3 -55 -60 -30 -62 -31 -67 -16 -90 13 -20 13 -27 2 -49 -13 -24
-14 -24 -105 91 -91 115 -92 116 -77 144 l14 29 143 -7 c78 -3 144 -7 146 -9z
m2771 -179 c7 -9 8 -15 2 -15 -5 0 -12 7 -16 15 -3 8 -4 15 -2 15 2 0 9 -7 16
-15z m1600 -25 c24 -24 26 -72 4 -94 -18 -19 -70 -21 -80 -4 -9 14 -34 -18
-34 -44 0 -13 8 -18 26 -18 40 0 28 -34 -14 -38 -26 -3 -32 -7 -32 -28 0 -17
-5 -24 -20 -24 -16 0 -20 7 -20 35 0 19 -5 35 -10 35 -19 0 -50 64 -50 103 0
61 49 94 101 67 15 -8 24 -6 41 10 28 25 62 26 88 0z m-4731 -10 c10 -5 40
-57 66 -115 27 -58 52 -105 55 -105 3 0 17 35 31 78 21 64 29 76 45 74 10 -2
20 -5 22 -7 4 -3 -70 -208 -79 -218 -20 -24 -47 9 -99 119 l-53 116 -30 -81
c-29 -83 -33 -87 -55 -73 -9 7 -4 33 25 115 21 59 42 107 46 107 5 0 16 -4 26
-10z m3286 -164 c10 -17 16 -29 12 -26 -11 10 -137 191 -137 198 0 9 102 -131
125 -172z m-200 144 c-3 -5 -10 -10 -16 -10 -5 0 -9 5 -9 10 0 6 7 10 16 10 8
0 12 -4 9 -10z m-45 -34 c0 -11 -19 -15 -25 -6 -3 5 1 10 9 10 9 0 16 -2 16
-4z m108 -55 c3 -8 -1 -12 -9 -9 -7 2 -15 10 -17 17 -3 8 1 12 9 9 7 -2 15
-10 17 -17z m-277 -24 c-13 -13 -26 -3 -16 12 3 6 11 8 17 5 6 -4 6 -10 -1
-17z m129 19 c0 -2 -7 -6 -15 -10 -8 -3 -15 -1 -15 4 0 6 7 10 15 10 8 0 15
-2 15 -4z m215 -6 c3 -5 2 -10 -4 -10 -5 0 -13 5 -16 10 -3 6 -2 10 4 10 5 0
13 -4 16 -10z m15 -30 c0 -5 -2 -10 -4 -10 -3 0 -8 5 -11 10 -3 6 -1 10 4 10
6 0 11 -4 11 -10z m-270 -40 c0 -5 -7 -10 -15 -10 -8 0 -15 5 -15 10 0 6 7 10
15 10 8 0 15 -4 15 -10z m120 -10 c0 -5 -7 -10 -16 -10 -8 0 -12 5 -9 10 3 6
10 10 16 10 5 0 9 -4 9 -10z m120 -6 c0 -17 -22 -14 -28 4 -2 7 3 12 12 12 9
0 16 -7 16 -16z m-350 -3 c0 -5 -7 -11 -15 -15 -9 -3 -15 0 -15 9 0 8 7 15 15
15 8 0 15 -4 15 -9z m457 -13 c-3 -8 -6 -5 -6 6 -1 11 2 17 5 13 3 -3 4 -12 1
-19z m1 -37 c3 -8 -1 -12 -9 -9 -7 2 -15 10 -17 17 -3 8 1 12 9 9 7 -2 15 -10
17 -17z m-268 -1 c0 -5 -7 -10 -15 -10 -8 0 -15 5 -15 10 0 6 7 10 15 10 8 0
15 -4 15 -10z m110 0 c0 -5 -5 -10 -11 -10 -5 0 -7 5 -4 10 3 6 8 10 11 10 2
0 4 -4 4 -10z m280 -101 c0 -8 -7 -2 -16 11 -10 14 -31 41 -48 60 -17 20 -10
15 17 -11 26 -26 47 -53 47 -60z m-508 79 c-6 -6 -15 -8 -19 -4 -4 4 -1 11 7
16 19 12 27 3 12 -12z m-3002 -18 c3 -4 32 -50 65 -103 33 -53 61 -94 63 -92
2 2 12 39 21 82 14 65 21 78 37 78 23 0 22 -12 -7 -142 -19 -84 -23 -93 -43
-93 -19 0 -36 21 -87 105 -35 57 -67 105 -70 105 -3 0 -14 -36 -23 -80 -12
-55 -22 -80 -32 -80 -25 0 -26 23 -4 121 27 125 26 122 52 113 13 -4 25 -10
28 -14z m2900 -5 c0 -8 -7 -15 -15 -15 -16 0 -20 12 -8 23 11 12 23 8 23 -8z
m420 5 c0 -5 -7 -10 -15 -10 -8 0 -15 5 -15 10 0 6 7 10 15 10 8 0 15 -4 15
-10z m-535 -10 c3 -6 -1 -13 -10 -16 -19 -8 -30 0 -20 15 8 14 22 14 30 1z
m445 -55 c0 -8 -9 -15 -20 -15 -11 0 -20 7 -20 15 0 8 9 15 20 15 11 0 20 -7
20 -15z m220 -1 c0 -8 -4 -12 -10 -9 -5 3 -10 10 -10 16 0 5 5 9 10 9 6 0 10
-7 10 -16z m-470 -3 c0 -12 -20 -25 -27 -18 -7 7 6 27 18 27 5 0 9 -4 9 -9z
m-110 -22 c0 -5 -7 -9 -15 -9 -15 0 -20 12 -9 23 8 8 24 -1 24 -14z m530 -6
c0 -13 -3 -13 -15 -3 -8 7 -12 16 -9 21 8 13 24 1 24 -18z m1538 -19 c3 -30
-1 -34 -72 -75 -42 -24 -76 -47 -76 -50 0 -3 35 -11 78 -18 94 -15 97 -17 105
-56 l6 -31 -117 -31 c-64 -18 -117 -31 -118 -30 -1 1 -4 12 -8 23 -6 20 0 23
66 39 108 26 110 31 30 49 -88 20 -122 33 -122 46 0 5 37 35 83 66 l82 56 -92
-7 -93 -7 0 26 c0 24 3 25 63 29 34 2 89 3 122 3 60 -1 60 -1 63 -32z m-2178
17 c0 -12 -20 -25 -27 -18 -7 7 6 27 18 27 5 0 9 -4 9 -9z m272 -23 c-7 -7
-12 -8 -12 -2 0 6 3 14 7 17 3 4 9 5 12 2 2 -3 -1 -11 -7 -17z m495 -25 c-3
-10 -5 -4 -5 12 0 17 2 24 5 18 2 -7 2 -21 0 -30z m-217 -3 c0 -13 -7 -20 -20
-20 -22 0 -23 1 -14 24 9 23 34 20 34 -4z m-200 -9 c0 -12 -20 -25 -27 -18 -7
7 6 27 18 27 5 0 9 -4 9 -9z m-387 -52 c-17 -17 -37 -1 -22 17 8 10 15 12 23
4 7 -7 7 -13 -1 -21z m131 16 c3 -9 -1 -18 -10 -22 -19 -7 -28 2 -21 22 8 19
23 19 31 0z m97 -7 c-4 -12 -14 -24 -20 -26 -8 -3 -7 5 4 22 21 32 27 33 16 4z
m566 -10 c-3 -7 -5 -2 -5 12 0 14 2 19 5 13 2 -7 2 -19 0 -25z m-67 -4 c0 -8
-4 -14 -10 -14 -5 0 -10 9 -10 21 0 11 5 17 10 14 6 -3 10 -13 10 -21z m-832
-6 c-6 -18 -28 -21 -28 -4 0 9 7 16 16 16 9 0 14 -5 12 -12z m572 -13 c0 -16
-27 -32 -37 -22 -3 4 -3 13 0 22 8 20 37 20 37 0z m317 -17 c-3 -8 -6 -5 -6 6
-1 11 2 17 5 13 3 -3 4 -12 1 -19z m-517 -2 c0 -8 -4 -17 -9 -21 -12 -7 -24
12 -16 25 9 15 25 12 25 -4z m387 -1 c7 -20 -2 -29 -21 -22 -9 4 -13 13 -10
22 8 19 23 19 31 0z m120 -37 c-3 -8 -6 -5 -6 6 -1 11 2 17 5 13 3 -3 4 -12 1
-19z m-2112 -58 c-4 -34 -9 -59 -12 -57 -2 3 -1 33 3 66 4 34 9 60 11 57 3 -3
2 -32 -2 -66z m765 55 c-7 -9 -15 -13 -19 -10 -3 3 1 10 9 15 21 14 24 12 10
-5z m690 -25 c-14 -10 -27 -16 -30 -14 -2 3 6 14 20 24 14 10 27 16 30 14 2
-3 -6 -14 -20 -24z m-2787 -1 c91 -12 97 -14 97 -36 0 -27 -19 -29 -133 -13
-143 21 -137 19 -137 47 0 24 2 25 38 20 20 -3 81 -11 135 -18z m2557 -3 c0
-18 -16 -29 -30 -21 -13 8 -1 35 16 35 8 0 14 -6 14 -14z m118 -9 c2 -10 -3
-17 -12 -17 -10 0 -16 9 -16 21 0 24 23 21 28 -4z m538 12 c10 -17 -13 -36
-27 -22 -12 12 -4 33 11 33 5 0 12 -5 16 -11z m-896 -19 c0 -11 -4 -20 -9 -20
-14 0 -23 18 -16 30 10 17 25 11 25 -10z m700 6 c0 -17 -27 -29 -35 -16 -4 6
-3 15 0 20 9 15 35 12 35 -4z m-824 -21 c3 -19 -10 -19 -25 -1 -9 11 -9 15 1
19 16 5 21 1 24 -18z m244 10 c0 -8 -7 -15 -15 -15 -16 0 -20 12 -8 23 11 12
23 8 23 -8z m-763 -17 c-3 -13 -12 -41 -21 -63 l-15 -40 -1 32 c0 17 8 45 18
62 20 37 26 39 19 9z m1163 8 c0 -16 -18 -31 -27 -22 -8 8 5 36 17 36 5 0 10
-6 10 -14z m540 -31 c0 -8 -4 -15 -10 -15 -5 0 -10 7 -10 15 0 8 5 15 10 15 6
0 10 -7 10 -15z m-55 -19 c19 -8 35 -18 35 -21 0 -5 -70 21 -79 30 -8 9 10 5
44 -9z m-3372 -55 c12 -12 21 -39 24 -79 l6 -61 46 -3 c42 -3 46 -5 49 -32 3
-28 2 -29 -28 -22 -18 3 -80 6 -138 6 l-105 0 5 85 c4 49 12 92 19 101 31 37
87 39 122 5z m2617 -1 c0 -11 -7 -20 -15 -20 -8 0 -15 9 -15 20 0 11 7 20 15
20 8 0 15 -9 15 -20z m-130 -4 c0 -21 -21 -31 -30 -15 -5 7 -6 17 -4 21 9 14
34 9 34 -6z m997 -33 c-3 -10 -5 -2 -5 17 0 19 2 27 5 18 2 -10 2 -26 0 -35z
m1503 22 c0 -25 -1 -25 -83 -25 -97 0 -121 -15 -121 -75 0 -60 24 -75 121 -75
75 0 83 -2 83 -19 0 -16 -9 -21 -45 -27 -25 -3 -71 -4 -101 -2 -69 6 -94 29
-101 91 -14 123 21 157 160 157 86 0 87 0 87 -25z m-2686 -11 c18 -48 -5 -91
-44 -79 -26 8 -25 21 3 62 25 37 32 40 41 17z m1168 -76 c-6 -6 -7 0 -4 19 5
21 7 23 10 9 2 -10 0 -22 -6 -28z m-842 -22 c0 -8 -4 -17 -9 -21 -12 -7 -24
12 -16 25 9 15 25 12 25 -4z m830 0 c0 -2 -8 -10 -17 -17 -16 -13 -17 -12 -4
4 13 16 21 21 21 13z m-2526 -56 c43 -11 101 -32 129 -47 113 -62 214 -197
238 -321 37 -193 -111 -409 -348 -508 -38 -15 -69 -29 -71 -30 -2 -1 34 -39
80 -85 140 -142 202 -275 201 -434 0 -103 -15 -163 -68 -264 -117 -222 -367
-403 -675 -489 -86 -24 -111 -27 -275 -27 -162 0 -188 2 -257 24 -43 13 -86
34 -99 47 -28 29 -28 97 -1 133 31 42 61 47 154 25 124 -28 342 -26 462 5 183
47 314 120 427 238 69 71 98 119 130 212 23 66 24 102 3 191 -30 133 -136 261
-275 335 -69 36 -197 72 -209 58 -16 -17 -165 -591 -221 -846 -10 -47 -20 -64
-48 -88 -20 -16 -43 -29 -52 -29 -100 0 -36 399 167 1040 62 194 153 433 190
496 42 71 107 78 142 14 14 -24 11 -35 -30 -145 -59 -155 -101 -285 -96 -291
7 -6 138 22 218 47 100 31 207 87 265 141 181 165 96 376 -166 417 -271 43
-687 -175 -918 -482 -39 -52 -79 -97 -89 -99 -29 -8 -81 18 -93 46 -9 19 -9
33 2 58 43 104 272 342 432 449 285 191 543 262 751 209z m1656 -16 c0 -14
-21 -19 -33 -7 -9 9 13 34 24 27 5 -3 9 -12 9 -20z m-1223 -96 c-2 -18 -4 -6
-4 27 0 33 2 48 4 33 2 -15 2 -42 0 -60z m1057 22 c-29 -43 -39 -48 -48 -24
-7 18 35 64 59 64 12 0 10 -8 -11 -40z m56 -9 c0 -12 -20 -25 -27 -18 -7 7 6
27 18 27 5 0 9 -4 9 -9z m2306 -63 c-22 -31 -21 -104 0 -112 24 -9 39 7 53 63
25 96 103 117 137 35 15 -36 13 -72 -8 -126 -11 -31 -18 -34 -35 -17 -8 8 -7
20 3 45 18 43 18 69 -1 88 -24 24 -41 9 -54 -47 -20 -89 -82 -125 -128 -74
-40 43 -36 115 9 172 18 23 22 25 30 11 6 -11 4 -23 -6 -38z m-3409 -40 c-3
-8 -6 -5 -6 6 -1 11 2 17 5 13 3 -3 4 -12 1 -19z m1372 -63 c52 -26 54 -72 9
-158 -36 -68 -159 -203 -225 -249 -25 -16 -43 -31 -41 -33 2 -2 25 1 51 7 55
11 80 -1 75 -36 -4 -31 -63 -55 -151 -62 l-76 -7 -19 -46 c-45 -105 -52 -166
-24 -201 17 -21 22 -22 52 -12 57 20 117 78 155 150 35 67 95 142 114 142 5 0
16 -7 25 -15 13 -13 11 -24 -21 -92 -43 -93 -57 -193 -27 -193 32 0 117 99
137 160 21 67 56 129 80 144 15 9 22 7 35 -10 13 -15 23 -19 37 -13 11 4 41 8
67 8 35 1 54 -5 74 -22 38 -33 34 -81 -11 -174 -37 -73 -42 -113 -16 -121 22
-7 128 113 158 181 78 174 221 418 267 456 18 15 44 8 52 -14 4 -9 -24 -75
-65 -154 -39 -76 -71 -142 -71 -145 0 -3 24 -6 54 -6 43 0 61 -5 81 -23 39
-33 35 -75 -14 -176 -57 -118 -55 -132 13 -86 50 34 81 70 112 130 15 27 45
69 68 92 22 24 53 57 68 73 32 36 77 40 126 10 67 -41 96 -133 68 -216 -9 -26
-14 -49 -11 -52 8 -9 67 18 105 48 44 35 65 38 80 11 23 -45 -101 -132 -193
-136 -32 -1 -54 -8 -70 -22 -44 -41 -92 -63 -135 -63 -36 0 -50 6 -76 33 -18
17 -35 39 -38 47 -4 12 -13 8 -39 -16 -19 -18 -44 -37 -56 -43 -32 -16 -91
-13 -123 6 -51 30 -53 88 -5 197 19 44 32 82 29 85 -13 13 -80 -39 -119 -94
-39 -54 -50 -80 -69 -166 -10 -47 -66 -45 -66 2 0 19 -16 26 -22 10 -1 -5 -21
-20 -42 -35 -57 -38 -108 -36 -152 8 -30 30 -34 40 -34 88 0 38 8 71 30 117
17 35 29 66 26 68 -2 2 -15 1 -30 -3 -56 -14 -125 -116 -141 -210 -8 -43 -30
-84 -45 -84 -6 0 -17 8 -26 18 -15 18 -17 18 -54 -1 -51 -24 -90 -16 -129 29
l-30 34 -49 -30 c-95 -60 -196 -46 -235 33 l-18 36 -42 -21 c-26 -14 -60 -22
-94 -23 -29 0 -55 -5 -57 -11 -2 -6 -26 -25 -52 -42 -67 -45 -134 -45 -174 -2
-16 17 -31 44 -35 60 -4 17 -9 30 -12 30 -2 0 -25 -17 -51 -39 -26 -21 -61
-46 -79 -55 -40 -20 -112 -21 -140 -1 -46 32 -55 144 -18 216 14 26 15 33 3
40 -25 16 -33 9 -66 -55 -34 -66 -128 -166 -156 -166 -8 0 -20 9 -26 19 -8 16
-3 28 29 66 39 47 101 163 101 188 0 7 -7 22 -15 33 -25 32 -19 89 11 113 15
12 35 21 44 21 28 0 58 -32 68 -70 7 -30 15 -37 56 -52 43 -16 49 -17 71 -2
34 22 76 14 95 -18 13 -25 13 -30 -2 -55 -9 -16 -31 -32 -49 -37 -40 -12 -89
-85 -89 -133 0 -28 4 -33 23 -33 39 0 107 54 192 150 44 50 90 98 103 106 12
8 22 21 22 28 0 24 59 66 91 66 112 0 168 -124 123 -269 -7 -22 -5 -23 20 -17
57 14 105 56 116 100 6 22 19 60 30 84 25 54 25 64 -1 80 -14 9 -19 21 -17 40
3 25 6 27 44 25 l42 -2 63 122 c100 194 149 264 213 302 47 28 94 32 135 10z
m-315 -4 c3 -5 -1 -14 -8 -20 -16 -13 -32 2 -21 19 8 12 22 13 29 1z m-959
-230 c23 -23 111 -19 162 7 22 12 54 33 72 47 17 15 31 23 31 18 0 -11 -57
-56 -99 -77 -18 -10 -58 -20 -87 -23 -44 -5 -58 -2 -76 13 -23 21 -68 110 -68
134 0 8 11 -12 25 -44 13 -33 31 -67 40 -75z m3360 99 c60 -11 111 -20 113
-20 2 0 2 -10 0 -22 -2 -13 -8 -23 -13 -22 -6 1 -58 10 -117 20 -100 17 -108
20 -108 41 0 28 -8 28 125 3z m6 -123 c48 -31 71 -83 63 -137 -8 -51 -49 -103
-63 -81 -6 9 -2 25 11 47 51 86 -42 183 -121 128 -33 -23 -53 -77 -42 -108 8
-19 6 -26 -6 -30 -22 -9 -33 11 -33 60 0 51 33 103 80 126 46 24 70 23 111 -5z
m-2067 -130 c8 -22 6 -32 -11 -55 -26 -35 -47 -38 -73 -12 -15 15 -19 28 -14
43 18 61 80 76 98 24z m1445 -391 c10 -11 -1 -41 -53 -144 l-65 -130 50 2 c44
1 54 -3 75 -27 32 -38 30 -58 -16 -157 -33 -70 -37 -86 -24 -88 23 -5 83 46
120 104 55 82 85 114 138 145 69 39 136 40 165 3 25 -32 27 -81 5 -113 -25
-36 -110 -71 -171 -71 -57 0 -65 -9 -37 -48 33 -48 190 -8 270 70 38 36 68 34
72 -4 4 -36 -61 -101 -134 -135 -120 -55 -225 -52 -281 7 l-27 29 -26 -23
c-37 -35 -64 -46 -108 -46 -91 0 -111 72 -53 189 17 36 31 68 31 73 0 14 -57
-20 -85 -50 -42 -44 -68 -92 -80 -145 -17 -76 -62 -92 -67 -24 -1 15 -4 27 -6
27 -3 0 -32 -14 -67 -31 -104 -51 -209 -48 -250 8 -9 12 -15 11 -35 -5 -45
-35 -94 -45 -134 -28 -20 8 -39 22 -42 30 -4 12 -12 10 -41 -10 -73 -49 -148
-37 -180 30 l-15 33 -49 -18 c-27 -11 -63 -19 -80 -19 -19 0 -44 -11 -68 -30
-81 -66 -157 -55 -196 28 l-21 42 -29 -30 c-16 -17 -53 -42 -82 -56 -61 -30
-102 -26 -133 13 -37 47 -36 102 4 194 5 12 1 18 -14 22 -16 4 -25 -3 -42 -36
-62 -123 -113 -167 -191 -167 -38 0 -53 5 -73 25 l-24 24 -36 -24 c-25 -17
-51 -25 -80 -25 -89 0 -127 40 -126 132 2 129 101 247 208 248 35 0 84 -33 84
-56 0 -12 5 -11 26 5 26 21 49 19 58 -5 3 -7 -8 -45 -24 -83 -65 -152 -11
-205 80 -79 40 55 47 84 26 118 -21 37 -20 52 5 84 36 46 93 27 106 -35 4 -21
15 -32 46 -44 37 -15 43 -15 74 0 39 19 69 12 78 -16 12 -37 -4 -69 -40 -85
-64 -27 -117 -144 -65 -144 12 0 33 6 48 14 28 14 232 223 232 237 0 15 63 59
84 59 13 0 38 -10 56 -22 64 -44 87 -128 56 -203 -14 -32 -14 -35 3 -35 35 0
97 51 124 104 33 63 84 126 102 126 7 0 18 -7 25 -15 10 -12 5 -30 -29 -101
-44 -91 -50 -124 -27 -143 11 -10 21 -9 45 3 36 19 66 59 111 143 37 71 63 98
85 90 21 -9 19 -32 -10 -102 -29 -71 -33 -130 -8 -139 20 -8 106 78 127 128
35 85 134 156 217 156 71 0 88 -34 49 -97 -23 -38 -51 -42 -72 -11 l-15 22
-31 -23 c-41 -29 -82 -99 -82 -139 0 -27 4 -32 34 -38 51 -9 136 20 195 66 28
22 51 46 51 54 0 26 131 272 185 349 56 78 73 89 94 63z m-2679 -178 c0 -7
-25 -63 -56 -125 -58 -115 -78 -193 -54 -208 14 -9 48 26 129 129 25 33 51 56
62 56 10 0 32 -12 49 -27 32 -29 40 -65 27 -115 -9 -35 0 -35 48 -2 38 25 61
22 50 -8 -8 -21 -78 -58 -110 -58 -15 0 -40 -11 -57 -25 -37 -31 -72 -32 -103
-1 -21 21 -26 22 -42 10 -24 -18 -87 -18 -103 1 -11 13 -15 13 -33 0 -45 -32
-102 -13 -121 39 -20 57 63 176 123 176 15 0 31 -3 35 -7 18 -18 38 -8 56 28
11 21 18 39 15 39 -2 0 -13 -17 -24 -37 -11 -21 -20 -34 -21 -30 -1 17 51 107
59 102 5 -2 15 3 22 13 13 15 12 16 -3 3 -10 -7 -18 -9 -18 -3 0 15 26 33 35
24 5 -4 5 -1 1 6 -4 6 -4 17 -1 22 9 14 35 12 35 -2z m1095 -638 c-3 -5 -16
-10 -28 -9 -20 1 -20 2 3 9 14 4 26 8 28 9 2 1 0 -3 -3 -9z m-1225 -35 c15
-18 7 -19 -19 -3 -26 16 -53 -6 -49 -40 5 -37 32 -51 57 -28 22 20 30 9 9 -12
-15 -15 -51 -15 -66 0 -7 7 -12 26 -12 43 0 17 5 36 12 43 17 17 53 15 68 -3z
m98 8 c-20 -3 -28 -10 -28 -24 0 -14 7 -19 28 -20 l27 -2 -27 -4 c-42 -6 -38
-40 5 -46 28 -3 26 -4 -10 -5 l-43 -2 0 55 0 55 38 -1 c30 -2 32 -3 10 -6z
m108 -33 c15 -22 24 -43 21 -46 -3 -3 -14 9 -24 28 l-18 33 -6 -45 -6 -45 -1
58 c-1 31 0 57 3 57 3 0 17 -18 31 -40z m40 -68 c-11 -10 -12 3 -7 58 l6 55 3
-54 c2 -29 1 -56 -2 -59z m109 99 c-15 -6 -22 -20 -26 -57 l-6 -49 -1 52 c-2
40 -6 53 -19 56 -10 3 2 5 27 5 31 0 39 -2 25 -7z m131 -51 c2 -47 0 -51 -8
-27 -7 19 -17 27 -33 27 -18 0 -25 -6 -28 -27 -2 -16 -5 -2 -6 30 l-1 58 38
-3 37 -3 1 -55z m128 44 c31 -30 10 -94 -30 -94 -33 0 -54 21 -54 53 0 18 5
38 12 45 17 17 54 15 72 -4z m187 6 c13 -7 19 -21 19 -45 0 -38 -20 -55 -64
-55 -24 0 -26 3 -26 48 0 27 3 52 7 55 10 10 42 8 64 -3z m112 3 c-25 -3 -33
-9 -33 -24 0 -14 8 -19 33 -21 l32 -1 -32 -4 c-24 -3 -33 -9 -33 -23 0 -14 9
-20 33 -23 28 -3 26 -4 -10 -5 l-43 -2 0 55 0 55 43 -2 c36 -1 38 -2 10 -5z
m198 -10 c11 -15 11 -16 -1 -5 -8 6 -22 12 -33 12 -28 0 -17 -33 13 -40 29 -7
40 -47 16 -56 -25 -10 -66 5 -66 23 0 15 1 15 13 -1 14 -20 48 -19 54 1 3 7
-12 19 -31 27 -38 16 -43 25 -24 44 17 17 43 15 59 -5z m114 -25 c9 -24 19
-49 22 -55 3 -7 1 -13 -5 -13 -5 0 -12 9 -15 19 -3 15 -11 18 -27 14 -12 -3
-24 -12 -27 -19 -3 -8 -9 -14 -13 -14 -5 0 2 25 13 55 12 30 25 55 28 55 4 0
15 -19 24 -42z m139 26 c36 -35 7 -98 -43 -92 -54 6 -52 108 3 108 14 0 32 -7
40 -16z m193 4 c18 -25 9 -43 -24 -46 -26 -3 -33 -8 -36 -30 -2 -15 -5 -1 -6
31 -1 57 -1 57 28 57 16 0 33 -6 38 -12z m97 -21 c7 -19 17 -45 20 -58 7 -22
6 -23 -7 -6 -22 27 -55 30 -62 6 -4 -11 -9 -18 -12 -16 -6 7 30 107 39 107 4
0 14 -15 22 -33z m106 -62 c23 0 26 5 31 50 l6 50 1 -52 c2 -48 0 -53 -23 -59
-45 -11 -55 0 -53 58 l1 53 6 -50 c5 -45 8 -50 31 -50z m133 -8 c31 -4 31 -4
-5 -5 l-38 -2 2 58 2 57 3 -52 c4 -50 5 -52 36 -56z m141 87 c32 -32 10 -94
-34 -94 -26 0 -50 27 -50 55 0 28 24 55 50 55 10 0 26 -7 34 -16z m317 -1 c11
-15 11 -16 -1 -5 -8 6 -22 12 -33 12 -28 0 -17 -33 13 -40 29 -7 40 -47 16
-56 -25 -10 -66 5 -66 23 0 15 1 15 13 -1 15 -21 52 -18 52 4 0 8 -10 16 -22
18 -32 5 -49 28 -33 47 17 20 45 19 61 -2z m127 -15 c3 -25 0 -28 -27 -28 -25
0 -30 -5 -34 -27 -2 -16 -5 -2 -6 30 l-1 58 33 -3 c27 -2 33 -8 35 -30z"/>
<path d="M3611 4737 c2 -2 26 -23 53 -48 28 -25 44 -35 38 -23 -11 21 -74 74
-88 74 -4 0 -5 -1 -3 -3z"/>
<path d="M3106 4853 c-6 -14 -5 -15 5 -6 7 7 10 15 7 18 -3 3 -9 -2 -12 -12z"/>
<path d="M2940 4650 c-6 -11 -8 -20 -6 -20 3 0 10 9 16 20 6 11 8 20 6 20 -3
0 -10 -9 -16 -20z"/>
<path d="M2910 4595 c-7 -9 -11 -17 -9 -20 3 -2 10 5 17 15 14 24 10 26 -8 5z"/>
<path d="M3064 4495 c-9 -23 14 -37 39 -23 14 7 17 7 13 -1 -5 -7 6 -11 31
-11 38 1 38 1 13 15 -37 21 -2 18 46 -4 22 -10 57 -36 77 -56 20 -21 37 -34
37 -29 -1 16 -34 50 -83 84 -38 27 -60 35 -107 38 -50 4 -61 2 -66 -13z"/>
<path d="M3092 4398 c-28 -36 -42 -78 -33 -101 12 -30 48 -57 77 -57 32 0 90
26 73 33 -8 3 6 6 31 6 33 1 41 4 30 11 -8 5 -28 10 -43 10 -16 0 -26 4 -23 8
2 4 -11 7 -31 6 -25 0 -43 7 -61 23 -23 22 -24 24 -9 41 10 10 17 22 17 25 0
11 -17 8 -28 -5z"/>
<path d="M2770 4235 c0 -5 5 -17 10 -25 5 -8 10 -10 10 -5 0 6 -5 17 -10 25
-5 8 -10 11 -10 5z"/>
<path d="M2827 4203 c-4 -3 1 -12 11 -19 14 -11 14 -13 2 -14 -33 -1 25 -30
59 -29 30 0 32 2 15 9 -11 4 -28 20 -37 34 -17 25 -37 33 -50 19z"/>
<path d="M2713 4070 c0 -25 2 -35 4 -22 2 12 2 32 0 45 -2 12 -4 2 -4 -23z"/>
<path d="M3618 4058 c-20 -12 -39 -27 -42 -33 -5 -14 23 -75 35 -75 14 0 10
33 -6 57 -16 23 -8 35 33 48 30 9 62 -19 62 -52 0 -13 -4 -22 -9 -19 -9 6 -25
-53 -17 -62 8 -7 36 69 36 99 0 17 -8 34 -22 43 -28 20 -25 20 -70 -6z"/>
<path d="M3521 3969 c-13 -17 -20 -33 -16 -37 8 -8 44 37 45 56 0 16 -1 15
-29 -19z"/>
<path d="M2802 3935 c-16 -13 -55 -50 -86 -81 -31 -31 -56 -51 -56 -45 0 6 -7
11 -15 11 -8 0 -15 -8 -15 -18 0 -27 -26 -76 -52 -98 -13 -10 -17 -12 -10 -4
25 29 11 29 -32 -1 -25 -16 -46 -35 -49 -42 -2 -6 7 -39 21 -72 21 -52 26 -83
32 -230 7 -147 21 -270 34 -282 2 -2 21 12 42 32 22 20 58 50 82 66 23 17 42
36 42 43 0 19 42 53 72 58 15 3 25 1 22 -3 -3 -5 2 -9 11 -9 9 0 14 4 11 9 -3
5 4 11 15 14 18 5 20 2 15 -16 -3 -12 -8 -40 -11 -62 -5 -37 -4 -38 5 -10 5
17 12 50 15 75 6 53 8 61 24 118 7 24 10 49 7 55 -2 7 -5 3 -5 -8 -1 -11 -6
-27 -12 -35 -9 -12 -10 -11 -4 5 11 35 27 197 21 221 -5 18 -17 25 -58 33
l-53 10 54 -4 c29 -2 56 -7 60 -11 3 -3 6 -52 6 -107 l0 -102 35 -11 c30 -10
36 -10 39 5 2 9 8 19 14 23 7 4 7 23 -2 62 -7 31 -10 60 -6 66 9 15 74 46 125
60 68 18 127 49 144 75 15 22 12 22 -36 -8 l-51 -32 -207 1 c-213 2 -244 7
-287 50 -41 41 22 105 134 134 23 6 45 15 48 20 4 6 10 8 15 5 4 -3 13 2 20
10 11 13 5 15 -44 15 -56 0 -66 6 -44 28 22 22 0 12 -30 -13z m-90 -235 c18
-11 47 -21 63 -21 24 -1 25 -3 7 -6 -29 -6 -85 13 -105 35 -8 9 -18 31 -22 47
l-6 30 15 -32 c8 -18 30 -42 48 -53z m-162 -15 c0 -2 -10 -10 -22 -16 -21 -11
-22 -11 -9 4 13 16 31 23 31 12z"/>
<path d="M2438 3923 c7 -3 16 -2 19 1 4 3 -2 6 -13 5 -11 0 -14 -3 -6 -6z"/>
<path d="M2634 3912 c-4 -12 -10 -19 -15 -16 -5 3 -9 0 -9 -5 0 -6 9 -11 19
-11 22 0 36 29 21 44 -8 8 -12 4 -16 -12z"/>
<path d="M2731 3904 c0 -11 3 -14 6 -6 3 7 2 16 -1 19 -3 4 -6 -2 -5 -13z"/>
<path d="M1900 3831 c0 -5 6 -13 13 -19 10 -8 13 -6 14 9 1 10 -5 19 -13 19
-8 0 -14 -4 -14 -9z"/>
<path d="M1805 3800 c-3 -5 -1 -10 4 -10 6 0 11 5 11 10 0 6 -2 10 -4 10 -3 0
-8 -4 -11 -10z"/>
<path d="M2525 3771 c-3 -5 -1 -12 5 -16 5 -3 10 1 10 9 0 18 -6 21 -15 7z"/>
<path d="M2413 3757 c-46 -15 -50 -35 -7 -31 19 1 34 -2 34 -7 0 -5 5 -9 11
-9 6 0 9 7 6 15 -4 8 -2 17 3 20 14 9 12 25 -2 24 -7 -1 -27 -7 -45 -12z"/>
<path d="M2008 3753 c6 -2 18 -2 25 0 6 3 1 5 -13 5 -14 0 -19 -2 -12 -5z"/>
<path d="M2320 3740 c-19 -10 -38 -16 -43 -13 -4 2 -19 -5 -33 -16 -15 -12
-33 -21 -40 -21 -7 0 -16 -5 -19 -10 -4 -7 3 -9 22 -5 25 6 26 5 11 -8 -25
-20 -23 -23 17 -25 29 -2 37 2 45 20 6 16 9 18 9 6 1 -9 -3 -20 -9 -23 -20
-12 -10 -26 10 -15 11 6 18 15 15 20 -3 5 -1 11 5 15 18 11 -1 27 -26 21 -14
-4 -24 -2 -24 4 0 5 12 10 26 10 14 0 23 4 20 9 -4 5 7 12 24 16 31 7 46 20
33 28 -5 3 -24 -3 -43 -13z"/>
<path d="M1615 3720 c4 -6 11 -8 16 -5 14 9 11 15 -7 15 -8 0 -12 -5 -9 -10z"/>
<path d="M2113 3695 c-26 -14 -20 -25 14 -25 13 0 23 6 23 14 0 21 -12 24 -37
11z"/>
<path d="M2360 3689 c-12 -21 1 -49 22 -49 6 0 6 6 -1 14 -14 17 -4 25 32 28
14 1 23 6 20 11 -2 4 -13 5 -24 2 -11 -4 -19 -2 -19 4 0 18 -19 12 -30 -10z"/>
<path d="M2440 3645 c-18 -21 -4 -65 20 -65 14 0 20 7 20 24 0 51 -17 69 -40
41z"/>
<path d="M2403 3633 c-4 -9 -16 -26 -27 -37 -16 -16 -17 -21 -5 -24 8 -3 17
-10 21 -16 5 -8 8 -7 8 2 0 8 8 10 27 6 l27 -7 -22 28 c-14 17 -20 35 -17 47
8 23 -3 24 -12 1z"/>
<path d="M2165 3625 c32 -14 41 -13 30 4 -3 6 -18 11 -33 10 l-27 -1 30 -13z"/>
<path d="M2110 3591 c0 -11 -4 -21 -10 -23 -21 -7 -120 4 -114 13 3 5 1 9 -4
9 -6 0 -13 -7 -16 -15 -3 -9 -11 -15 -18 -14 -20 3 -107 -24 -102 -32 2 -4 -3
-9 -11 -13 -8 -3 -15 -2 -15 3 0 10 -49 11 -55 1 -2 -4 -36 -6 -75 -5 -39 1
-68 0 -66 -2 3 -3 41 -11 84 -19 75 -13 83 -12 124 6 37 16 56 18 141 12 85
-7 100 -5 113 9 12 14 13 18 2 22 -7 3 -3 6 10 6 13 1 22 -5 22 -13 0 -8 6
-16 13 -19 6 -2 0 -8 -15 -12 -38 -10 -37 -33 1 -27 20 3 35 -2 49 -16 22 -22
52 -75 52 -89 -1 -4 -8 6 -17 22 -8 17 -25 40 -36 53 -21 22 -61 30 -72 12 -3
-5 -12 -7 -19 -4 -8 3 -36 -6 -63 -20 -26 -14 -42 -25 -34 -26 8 0 -4 -14 -25
-31 -22 -17 -38 -36 -36 -41 1 -5 -1 -7 -5 -5 -5 3 -28 2 -52 -3 -46 -8 -84
-3 -76 11 3 4 -3 13 -12 19 -13 8 -14 10 -3 9 31 -3 60 1 60 9 0 13 -71 7 -79
-7 -6 -10 -10 -10 -16 -1 -4 7 -17 9 -31 6 -14 -4 -24 -2 -24 4 0 5 -6 10 -12
10 -20 0 -109 46 -103 52 3 3 8 17 10 30 3 17 0 25 -10 25 -9 0 -15 -10 -15
-26 0 -14 -3 -37 -6 -51 -3 -15 -2 -20 3 -13 6 9 20 6 56 -10 51 -24 59 -36
25 -38 -39 -2 -53 2 -65 19 -7 9 -13 11 -13 5 0 -5 9 -18 20 -28 28 -26 25
-40 -5 -21 -18 12 -25 13 -25 4 0 -7 9 -19 20 -26 11 -7 20 -21 20 -32 0 -39
46 -13 102 58 10 12 23 22 29 22 7 0 0 -9 -15 -21 -15 -12 -23 -25 -19 -32 4
-7 8 -16 9 -22 0 -5 2 -16 2 -23 1 -7 11 -11 26 -8 36 6 27 -21 -20 -61 -21
-18 -33 -33 -26 -33 7 0 50 35 96 78 77 73 87 79 136 85 34 4 65 16 89 34 29
22 32 23 17 4 -11 -12 -21 -30 -22 -39 -2 -13 1 -12 16 6 10 12 28 22 39 22
19 0 17 -7 -27 -72 -76 -113 -75 -110 -53 -167 10 -28 16 -53 12 -57 -3 -4 -1
-4 6 0 7 4 10 14 7 24 -5 15 -5 15 6 -1 6 -9 8 -22 5 -27 -4 -6 -1 -9 6 -8 19
5 27 -38 28 -162 1 -63 6 -122 11 -130 8 -12 10 -12 10 -1 0 8 14 36 31 63 17
27 29 51 26 54 -3 3 -17 -17 -33 -45 -15 -28 -29 -49 -31 -47 -2 2 8 23 22 47
21 37 25 57 25 122 0 43 5 88 12 100 6 12 16 42 20 67 5 25 11 57 14 72 4 15
-2 50 -11 78 -9 28 -15 54 -11 57 3 3 17 2 31 -1 22 -6 25 -9 15 -21 -10 -12
-7 -16 13 -24 30 -12 46 -63 27 -86 -10 -12 -9 -15 9 -15 33 0 25 -19 -15 -36
-27 -11 -39 -12 -44 -4 -4 7 -9 0 -13 -17 -3 -15 -9 -37 -12 -48 -5 -13 0 -10
12 8 11 15 37 37 59 49 l38 20 18 -22 c10 -12 18 -29 18 -38 0 -8 3 -13 6 -10
7 8 -14 128 -27 152 -7 13 -7 16 0 11 7 -4 11 5 11 24 0 16 2 38 5 48 3 10 -1
5 -9 -12 l-15 -30 -1 27 c0 28 30 54 53 44 7 -3 6 -5 -3 -5 -25 -1 -14 -71 10
-71 10 0 20 8 22 18 2 9 12 -10 21 -43 16 -56 16 -57 11 -15 -3 25 -13 56 -22
70 -9 14 -20 34 -23 45 -3 11 -11 19 -18 17 -7 -1 -9 2 -6 8 6 10 -12 69 -25
80 -17 15 -39 60 -29 60 7 0 9 10 7 25 -3 14 -2 25 1 25 4 0 15 14 25 31 l18
31 -43 -4 c-24 -3 -58 -11 -76 -19 -33 -14 -59 -5 -33 11 13 8 12 10 -2 10
-11 0 -18 -8 -18 -19z m61 -32 c11 -5 17 -14 13 -20 -3 -6 4 -7 21 -3 23 6 26
4 23 -12 -2 -11 -9 -19 -16 -18 -6 1 -24 2 -39 3 -22 1 -25 3 -13 11 12 8 11
10 -7 10 -13 0 -23 5 -23 10 0 6 3 9 8 9 19 -3 25 2 12 11 -20 13 -4 13 21 -1z
m49 7 c0 -11 -19 -15 -25 -6 -3 5 1 10 9 10 9 0 16 -2 16 -4z m-255 -26 c-3
-5 -11 -10 -16 -10 -6 0 -7 5 -4 10 3 6 11 10 16 10 6 0 7 -4 4 -10z m114
-122 c0 -28 -2 -30 -9 -13 -12 28 -12 45 0 45 6 0 10 -15 9 -32z m11 -79 c0
-6 -4 -7 -10 -4 -5 3 -10 11 -10 16 0 6 5 7 10 4 6 -3 10 -11 10 -16z m29
-109 c1 -13 0 -13 -9 0 -5 8 -9 24 -9 35 l0 20 9 -20 c5 -11 9 -27 9 -35z
m-98 23 c-14 -24 -55 -72 -45 -53 10 20 47 70 51 70 2 0 -1 -8 -6 -17z m-54
-105 c-3 -7 -5 -2 -5 12 0 14 2 19 5 13 2 -7 2 -19 0 -25z m10 -40 c-3 -8 -6
-5 -6 6 -1 11 2 17 5 13 3 -3 4 -12 1 -19z"/>
<path d="M2055 3590 c-3 -5 1 -10 10 -10 9 0 13 5 10 10 -3 6 -8 10 -10 10 -2
0 -7 -4 -10 -10z"/>
<path d="M3480 3579 c0 -5 5 -7 10 -4 6 3 10 8 10 11 0 2 -4 4 -10 4 -5 0 -10
-5 -10 -11z"/>
<path d="M2280 3567 c0 -10 -4 -15 -10 -12 -5 3 -10 0 -10 -7 0 -20 29 -58 44
-58 8 0 19 -14 26 -30 7 -17 15 -28 18 -26 2 3 -5 20 -16 39 -14 25 -17 39 -9
52 7 13 6 16 -2 11 -6 -4 -11 -3 -11 1 0 5 -7 18 -15 29 -13 18 -14 18 -15 1z"/>
<path d="M2511 3514 c0 -11 3 -14 6 -6 3 7 2 16 -1 19 -3 4 -6 -2 -5 -13z"/>
<path d="M1849 3484 c-21 -24 -22 -26 -3 -16 25 13 50 42 37 42 -5 0 -20 -12
-34 -26z"/>
<path d="M1880 3481 c0 -6 5 -13 10 -16 6 -3 10 1 10 9 0 9 -4 16 -10 16 -5 0
-10 -4 -10 -9z"/>
<path d="M1915 3470 c-3 -4 15 -11 40 -15 46 -6 85 0 85 14 0 10 -119 11 -125
1z"/>
<path d="M1765 3450 c-9 -10 -26 -22 -36 -25 -11 -4 -19 -11 -19 -17 0 -5 16
-1 36 11 39 23 48 26 39 11 -3 -6 1 -7 10 -4 17 7 17 35 -1 41 -6 2 -19 -6
-29 -17z"/>
<path d="M1668 3423 c7 -3 16 -2 19 1 4 3 -2 6 -13 5 -11 0 -14 -3 -6 -6z"/>
<path d="M2350 3419 c0 -12 33 -100 36 -96 5 5 -17 81 -27 92 -5 5 -9 7 -9 4z"/>
<path d="M2486 3323 c9 -38 14 -42 14 -10 0 14 -5 29 -10 32 -7 4 -8 -3 -4
-22z"/>
<path d="M3020 3275 c0 -20 -7 -50 -16 -67 -9 -16 -11 -28 -6 -24 16 10 54 97
48 112 -10 27 -26 14 -26 -21z"/>
<path d="M1825 3169 c-65 -65 -81 -87 -59 -75 18 8 51 37 74 63 43 49 84 103
78 103 -2 0 -44 -41 -93 -91z"/>
<path d="M1774 3228 c-8 -26 5 -37 18 -15 9 18 10 18 24 0 15 -20 19 -6 5 16
-14 22 -39 22 -47 -1z"/>
<path d="M1911 3121 c-32 -45 -83 -145 -67 -132 7 6 20 9 29 5 8 -3 18 0 23 7
5 9 2 10 -9 6 -22 -8 -30 8 -12 23 8 7 15 18 15 25 0 7 11 29 25 50 31 44 27
59 -4 16z"/>
<path d="M2541 3044 c0 -11 3 -14 6 -6 3 7 2 16 -1 19 -3 4 -6 -2 -5 -13z"/>
<path d="M2564 3024 c-10 -15 -20 -21 -24 -15 -6 10 -45 -56 -42 -70 0 -4 -19
-30 -44 -59 -48 -56 -74 -98 -54 -85 10 6 166 212 184 243 14 23 -4 12 -20
-14z m-33 -47 c-10 -9 -11 -8 -5 6 3 10 9 15 12 12 3 -3 0 -11 -7 -18z"/>
<path d="M2234 2970 c-15 -22 -24 -43 -21 -46 3 -3 13 9 22 27 13 24 19 29 26
18 6 -10 9 -6 9 14 0 15 -2 27 -5 27 -3 0 -17 -18 -31 -40z"/>
<path d="M2012 2972 c-1 -18 -8 -35 -17 -38 -8 -4 -12 -10 -9 -15 3 -5 2 -15
-3 -21 -11 -19 -12 -37 -3 -43 4 -3 11 11 14 29 4 19 11 36 17 38 6 2 9 21 6
43 -3 36 -4 37 -5 7z"/>
<path d="M2102 2980 c0 -14 2 -19 5 -12 2 6 2 18 0 25 -3 6 -5 1 -5 -13z"/>
<path d="M1972 2954 c-12 -8 -22 -12 -22 -7 -1 10 -39 -39 -40 -51 0 -4 11 -1
25 8 14 9 25 14 25 11 0 -3 -15 -14 -32 -25 -21 -13 -27 -20 -16 -20 16 0 95
86 86 95 -2 3 -14 -2 -26 -11z"/>
<path d="M1802 2815 c0 -16 2 -22 5 -12 2 9 2 23 0 30 -3 6 -5 -1 -5 -18z"/>
<path d="M3811 4485 c0 -5 8 -26 19 -45 11 -19 19 -30 19 -25 0 6 -8 26 -19
45 -11 19 -19 31 -19 25z"/>
<path d="M1323 4343 c-27 -19 -28 -31 -5 -61 l18 -23 39 34 c35 30 38 36 26
51 -17 20 -49 20 -78 -1z"/>
<path d="M4306 4248 c-22 -31 -21 -36 16 -58 24 -14 35 -16 45 -8 26 21 11 56
-34 82 -6 3 -19 -4 -27 -16z"/>
<path d="M1072 4140 c-23 -17 -42 -36 -42 -43 1 -6 26 -40 58 -75 l57 -63 43
41 c54 52 58 96 13 141 -38 38 -76 38 -129 -1z"/>
<path d="M4469 4031 c-40 -40 -39 -81 2 -115 60 -51 143 -16 143 59 0 78 -89
112 -145 56z"/>
<path d="M734 3786 c-15 -12 -17 -18 -8 -33 15 -24 58 -24 62 0 4 18 -14 47
-27 47 -4 0 -16 -6 -27 -14z"/>
<path d="M828 3693 c-10 -2 -18 -13 -18 -23 0 -37 51 -45 78 -12 28 36 1 51
-60 35z"/>
<path d="M540 3382 c0 -4 14 -27 32 -51 l31 -43 23 43 c13 24 23 47 24 52 0 4
-25 7 -55 7 -30 0 -55 -4 -55 -8z"/>
<path d="M5080 3195 c-10 -12 -10 -18 0 -30 20 -25 55 -15 55 15 0 30 -35 40
-55 15z"/>
<path d="M4972 3178 c-17 -17 -15 -53 3 -68 9 -7 17 -11 18 -9 9 13 27 62 27
74 0 18 -31 20 -48 3z"/>
<path d="M251 2401 c-6 -11 -11 -33 -11 -50 0 -30 2 -31 41 -31 l40 0 -3 48
c-3 43 -5 47 -30 50 -18 2 -30 -3 -37 -17z"/>
<path d="M860 2206 c-145 -51 -306 -152 -462 -290 -93 -82 -238 -239 -238
-257 0 -20 18 -6 59 46 160 201 444 412 648 482 46 15 83 31 83 36 0 11 -19 7
-90 -17z"/>
<path d="M905 1940 c-3 -5 -1 -10 4 -10 6 0 11 5 11 10 0 6 -2 10 -4 10 -3 0
-8 -4 -11 -10z"/>
<path d="M881 1883 c-100 -216 -275 -765 -297 -931 -10 -81 10 -61 23 23 25
156 155 567 262 830 46 111 44 105 33 105 -5 0 -15 -12 -21 -27z"/>
<path d="M1490 1890 c0 -5 5 -10 11 -10 5 0 7 5 4 10 -3 6 -8 10 -11 10 -2 0
-4 -4 -4 -10z"/>
<path d="M1490 1818 c-1 -53 -33 -109 -96 -168 -52 -48 -174 -120 -204 -120
-5 0 -10 -4 -10 -10 0 -18 25 -11 99 26 91 45 177 124 208 189 23 51 31 115
13 115 -5 0 -10 -15 -10 -32z"/>
<path d="M135 1631 c-3 -5 -1 -12 5 -16 5 -3 10 1 10 9 0 18 -6 21 -15 7z"/>
<path d="M1356 799 c-29 -219 -255 -435 -543 -520 -47 -13 -60 -35 -15 -24 56
13 197 76 265 117 136 82 240 200 286 323 24 64 38 155 24 155 -6 0 -13 -23
-17 -51z"/>
<path d="M725 250 c3 -5 8 -10 11 -10 2 0 4 5 4 10 0 6 -5 10 -11 10 -5 0 -7
-4 -4 -10z"/>
<path d="M2927 1958 c-50 -52 -112 -148 -166 -255 -56 -113 -51 -118 7 -8 67
125 115 198 169 256 25 27 42 49 38 49 -5 0 -26 -19 -48 -42z"/>
<path d="M2974 1896 c-44 -46 -147 -206 -139 -215 14 -14 145 141 184 217 28
55 10 55 -45 -2z"/>
<path d="M3035 1884 c-18 -43 -65 -104 -133 -169 -25 -25 -41 -45 -35 -45 32
0 208 229 190 247 -3 3 -13 -12 -22 -33z"/>
<path d="M3744 1688 c-93 -142 -186 -329 -172 -343 3 -3 13 16 23 42 32 84 92
197 158 296 36 54 62 97 58 97 -4 0 -34 -42 -67 -92z"/>
<path d="M2870 1560 l-35 -7 37 -2 c20 0 40 4 43 9 7 11 7 11 -45 0z"/>
<path d="M1686 1533 c-4 -9 -3 -20 1 -24 4 -4 9 3 9 17 2 28 -1 31 -10 7z"/>
<path d="M2255 1475 c-3 -8 -7 -22 -10 -30 -9 -28 16 -112 46 -160 17 -26 33
-45 36 -41 3 3 -1 14 -10 24 -43 47 -69 147 -53 200 4 12 5 22 1 22 -3 0 -8
-7 -10 -15z"/>
<path d="M3743 1480 c-13 -5 -23 -12 -23 -16 0 -3 8 -3 18 1 9 4 33 11 52 15
34 8 34 8 5 8 -16 1 -40 -3 -52 -8z"/>
<path d="M4106 1474 c-9 -24 -7 -85 4 -123 11 -40 58 -111 73 -111 6 0 1 10
-10 23 -41 44 -57 89 -58 160 0 37 -1 67 -1 67 -1 0 -5 -7 -8 -16z"/>
<path d="M2620 1414 c-12 -36 -19 -68 -16 -71 3 -4 6 0 6 8 0 8 11 40 24 72
13 31 20 57 16 57 -5 0 -18 -30 -30 -66z"/>
<path d="M3166 1429 c-32 -72 -41 -103 -27 -95 6 4 11 14 11 22 0 8 11 37 25
66 14 28 23 54 20 56 -3 3 -16 -19 -29 -49z"/>
<path d="M3274 1464 c-10 -8 -13 -13 -7 -9 7 3 32 10 55 14 l43 9 -36 1 c-19
1 -44 -6 -55 -15z"/>
<path d="M2957 1438 c-31 -41 -47 -73 -47 -90 0 -7 12 10 26 37 14 28 33 58
41 68 9 9 13 17 10 17 -3 0 -17 -15 -30 -32z"/>
<path d="M1950 1445 c-20 -24 -6 -28 15 -5 10 11 13 20 8 20 -6 0 -16 -7 -23
-15z"/>
<path d="M2317 1437 c-5 -14 16 -104 27 -114 21 -21 35 62 16 96 -12 23 -37
33 -43 18z"/>
<path d="M4165 1440 c-10 -16 24 -122 38 -117 20 6 21 86 1 108 -19 21 -30 24
-39 9z"/>
<path d="M2175 1390 c-27 -30 -12 -34 15 -5 13 14 19 25 13 25 -5 0 -18 -9
-28 -20z"/>
<path d="M4026 1385 c-14 -13 -26 -30 -26 -37 0 -7 3 -8 8 -2 4 5 18 21 31 37
30 34 23 35 -13 2z"/>
<path d="M2391 1372 c0 -13 -6 -32 -11 -43 -7 -13 -7 -19 -1 -19 13 0 24 42
18 67 -4 14 -5 13 -6 -5z"/>
<path d="M4241 1372 c0 -13 -6 -32 -11 -43 -7 -13 -7 -19 -1 -19 13 0 24 42
18 67 -4 14 -5 13 -6 -5z"/>
<path d="M3763 1314 c-14 -30 -27 -74 -29 -97 l-3 -42 8 40 c5 22 21 66 35 98
13 31 23 57 20 57 -3 0 -17 -25 -31 -56z"/>
<path d="M2214 1294 c-30 -79 8 -130 65 -85 l24 18 -27 39 c-14 21 -26 44 -26
51 0 31 -20 18 -36 -23z"/>
<path d="M4070 1303 c-7 -21 -10 -54 -8 -73 4 -42 30 -50 67 -22 l23 19 -32
56 c-18 31 -34 57 -36 57 -2 0 -8 -17 -14 -37z"/>
<path d="M1829 1304 c-15 -40 -15 -115 0 -139 10 -17 11 -15 5 15 -9 45 -6 98
7 122 6 11 8 22 5 25 -3 3 -11 -7 -17 -23z"/>
<path d="M3042 1595 c0 -16 2 -22 5 -12 2 9 2 23 0 30 -3 6 -5 -1 -5 -18z"/>
<path d="M4462 1138 c-56 -84 -112 -181 -112 -194 0 -5 25 34 56 86 30 52 66
109 78 125 29 39 38 55 32 55 -3 0 -27 -33 -54 -72z"/>
<path d="M2384 991 c-36 -22 -100 -94 -107 -122 -8 -28 -3 -24 31 31 19 30 50
62 79 80 50 32 48 42 -3 11z"/>
<path d="M2712 980 c0 -14 2 -19 5 -12 2 6 2 18 0 25 -3 6 -5 1 -5 -13z"/>
<path d="M4075 958 c-50 -27 -137 -130 -122 -144 2 -3 10 9 17 26 15 36 80 96
124 116 17 7 24 13 16 13 -8 0 -24 -5 -35 -11z"/>
<path d="M2555 937 c-20 -31 -39 -87 -31 -94 3 -4 6 0 6 9 0 8 11 36 25 62 26
48 26 62 0 23z"/>
<path d="M3211 929 c-14 -40 0 -106 35 -160 14 -23 28 -39 30 -36 3 3 -6 21
-20 42 -30 43 -41 91 -33 146 6 47 3 50 -12 8z"/>
<path d="M4804 930 c-50 -28 -114 -94 -114 -115 0 -5 11 4 23 20 34 46 79 84
115 97 17 7 32 16 32 20 0 11 1 11 -56 -22z"/>
<path d="M2410 924 c-59 -50 -94 -163 -54 -178 26 -10 32 -7 73 29 54 49 68
85 51 136 -15 46 -28 48 -70 13z"/>
<path d="M4450 940 c-10 -6 -2 -7 25 -3 49 7 58 13 19 13 -16 0 -36 -5 -44
-10z"/>
<path d="M2951 921 c-7 -5 -12 -14 -10 -20 2 -6 10 -2 17 9 14 22 13 23 -7 11z"/>
<path d="M3551 884 c-43 -67 -39 -78 4 -14 20 29 33 55 31 58 -3 2 -19 -17
-35 -44z"/>
<path d="M4322 880 c-11 -27 -18 -50 -14 -50 8 0 43 92 38 97 -2 2 -13 -19
-24 -47z"/>
<path d="M3270 886 c0 -40 15 -86 29 -86 13 0 22 46 15 75 -3 14 -15 30 -25
36 -17 9 -19 6 -19 -25z"/>
<path d="M4835 881 c-16 -10 -41 -30 -54 -45 l-25 -26 35 6 c56 11 109 42 109
64 0 25 -25 26 -65 1z"/>
<path d="M3139 858 c-12 -23 -12 -23 10 -4 23 21 26 26 11 26 -5 0 -15 -10
-21 -22z"/>
<path d="M3327 827 c-6 -42 -2 -45 11 -8 6 17 7 33 3 36 -5 2 -11 -10 -14 -28z"/>
<path d="M4475 807 c-21 -51 -18 -59 6 -14 11 22 18 41 15 44 -3 4 -13 -10
-21 -30z"/>
<path d="M3179 782 c-22 -75 7 -115 56 -78 18 13 19 17 6 38 -8 13 -21 35 -29
51 -7 15 -15 27 -17 27 -2 0 -9 -17 -16 -38z"/>
<path d="M4810 804 c-31 -8 -37 -13 -20 -13 14 0 39 6 55 14 37 17 24 16 -35
-1z"/>
<path d="M2834 775 c-17 -41 -17 -45 -4 -45 6 0 10 9 10 21 0 11 5 29 10 40 6
10 8 19 5 19 -3 0 -13 -16 -21 -35z"/>
<path d="M2439 754 c-23 -25 -23 -26 -2 -15 23 12 38 29 31 37 -3 2 -15 -8
-29 -22z"/>
<path d="M3710 735 c0 -14 4 -25 9 -25 4 0 6 11 3 25 -2 14 -6 25 -8 25 -2 0
-4 -11 -4 -25z"/>
<path d="M4445 720 c-4 -17 -5 -34 -2 -36 2 -3 7 10 11 27 8 42 0 50 -9 9z"/>
<path d="M2825 698 c4 -13 11 -27 16 -33 5 -5 4 5 -2 23 -12 36 -24 44 -14 10z"/>
<path d="M4115 694 c-22 -8 -53 -13 -70 -10 -24 5 -27 4 -12 -5 22 -13 88 -3
114 16 22 18 18 17 -32 -1z"/>
<path d="M4885 680 c-11 -5 -42 -9 -70 -10 -34 -1 -44 -4 -31 -9 24 -9 103 2
118 17 14 14 11 14 -17 2z"/>
<path d="M1624 848 l-29 -33 35 30 c19 17 37 31 39 33 2 1 0 2 -5 2 -6 0 -23
-15 -40 -32z"/>
<path d="M1922 840 c0 -19 2 -27 5 -17 2 9 2 25 0 35 -3 9 -5 1 -5 -18z"/>
<path d="M1961 839 c0 -13 3 -31 7 -39 10 -22 36 -19 39 5 l3 20 -9 -20 c-9
-18 -10 -18 -10 6 -1 15 -8 32 -16 39 -13 10 -15 9 -14 -11z"/>
<path d="M1662 828 c-19 -21 -42 -68 -42 -87 0 -5 11 -11 25 -14 14 -2 24 -2
21 0 -2 3 7 21 20 41 14 20 22 42 19 50 -3 7 -5 18 -5 23 0 16 -16 10 -38 -13z"/>
<path d="M1879 823 c-13 -16 -12 -17 4 -4 16 13 21 21 13 21 -2 0 -10 -8 -17
-17z"/>
<path d="M1906 784 c-11 -28 -7 -74 7 -74 33 1 39 16 19 54 -15 28 -21 33 -26
20z"/>
<path d="M1930 793 c0 -6 9 -21 21 -34 l20 -24 -17 30 c-24 39 -24 40 -24 28z"/>
<path d="M2170 370 c0 -17 5 -21 28 -18 16 2 27 9 27 18 0 9 -11 16 -27 18
-23 3 -28 -1 -28 -18z"/>
<path d="M2302 378 c-7 -7 -12 -21 -12 -33 0 -46 53 -62 71 -21 21 45 -26 87
-59 54z"/>
<path d="M2500 345 c0 -37 3 -45 18 -45 24 0 42 19 42 45 0 26 -18 45 -42 45
-15 0 -18 -8 -18 -45z"/>
<path d="M2945 367 c-4 -10 -3 -23 3 -29 14 -14 21 3 12 27 -7 19 -8 19 -15 2z"/>
<path d="M3048 364 c-9 -18 -9 -30 -1 -42 22 -36 73 -21 73 22 0 48 -53 63
-72 20z"/>
<path d="M3250 371 c0 -16 6 -21 26 -21 33 0 30 33 -4 38 -17 3 -22 -2 -22
-17z"/>
<path d="M3376 362 c-9 -27 -5 -34 10 -24 7 4 8 16 4 27 -7 19 -7 19 -14 -3z"/>
<path d="M3719 369 c-8 -16 -8 -28 0 -45 18 -41 71 -25 71 21 0 44 -50 61 -71
24z"/>
<path d="M4170 371 c0 -16 6 -21 26 -21 33 0 30 33 -4 38 -17 3 -22 -2 -22
-17z"/>
</g>
</svg>
