<svg xmlns="http://www.w3.org/2000/svg" version="1.1" xmlns:xlink="http://www.w3.org/1999/xlink" xmlns:svgjs="http://svgjs.dev/svgjs" width="2000" height="1065" viewBox="0 0 2000 1065"><g transform="matrix(1,0,0,1,-1.2112696095522324,-0.9065393158742836)"><svg viewBox="0 0 396 211" data-background-color="#ffffff" preserveAspectRatio="xMidYMid meet" height="1065" width="2000" xmlns="http://www.w3.org/2000/svg" xmlns:xlink="http://www.w3.org/1999/xlink"><g id="tight-bounds" transform="matrix(1,0,0,1,0.24008861730862918,0.17978258630056132)"><svg viewBox="0 0 395.52 210.6402821321091" height="210.6402821321091" width="395.52"><g><svg viewBox="0 0 395.52 210.6402821321091" height="210.6402821321091" width="395.52"><g><svg viewBox="0 0 395.52 210.6402821321091" height="210.6402821321091" width="395.52"><g id="textblocktransform"><svg viewBox="0 0 395.52 210.6402821321091" height="210.6402821321091" width="395.52" id="textblock"><g><svg viewBox="0 0 395.52 210.6402821321091" height="210.6402821321091" width="395.52"><path d="M394.594 45.178C392.735 23.314 387.435 17.236 387.435 17.236 371.165-5.285 350.86-0.431 332.619 2.805 300.414 2.936 268.339 7.746 236.208 10.326 168.767 10.72 100.749 4.248 33.643 20.209 27.339 25.107-6.54 21.171 1.121 47.977 3.129 59.128 10.456 71.503 10.232 81.736 11.236 83.528 12.631 79.418 13.226 81.998 15.309 88.951 18.711 85.671 21.501 89.782 17.614 100.758 20.403 109.897 23.062 119.473 18.377 121.966 12.371 120.785 9.675 129.05 9.396 135.041 7.89 133.904 6.235 133.642 5.026 133.467 2.59 134.123 2.999 136.003 4.394 142.431-1.594 146.148 2.162 152.445-0.422 159.267 3.948 165.17 3.353 172.56 3.278 174.047 3.687 175.315 4.338 175.665 7.22 177.545 3.018 181.219 3.464 185.198 33.029 212.397 65.104 193.594 95.394 206.1 103.259 197.354 97.346 209.205 100.489 207.368 102.943 205.226 104.728 214.103 107.499 209.074 107.927 207.631 107.276 204.22 108.8 204.876 109.6 205.226 110.307 205.138 110.418 203.127 110.586 200.109 109.117 201.99 108.726 200.415 112.947 192.457 111.906 211.391 115.866 210.604 115.68 208.287 114.528 204.963 116.889 205.401 119.232 202.077 119.306 199.322 121.389 206.8 121.463 208.418 121.835 209.555 122.43 210.342 128.938 202.208 135.409 213.228 142.233 209.555 146.417 205.532 150.433 211.741 154.672 210.211 156.16 208.986 157.666 206.8 159.098 210.473 176.632 211.26 195.319 207.981 211.943 210.604 256.364 205.707 303.835 212.616 350.674 206.144 361.719 203.651 373.192 200.109 383.958 197.267 383.958 197.267 392.679 189.483 392.679 154.5S394.538 123.89 394.817 96.035C395.096 68.18 396.398 67.043 394.538 45.178Z" opacity="1" fill="#101010" data-fill-palette-color="tertiary"></path><g transform="matrix(1,0,0,1,55.76832,26.230666666666668)"><svg width="283.98335999999995" viewBox="3 -35.900001525878906 65.3499984741211 36.400001525878906" height="158.17894879877576" data-palette-color="#24af09"><path d="M13 0L3.5 0 3.5-27.35 3-32.35 3.5-35.4 12.5-35.4 12.5-21.85 24.95-21.85 24.95-35.4 33.95-35.4 33.95-16.6 34.45-13.15 34.45 0 24.95 0 24.95-13.2 12.5-13.2 12.5-10.2 13 0ZM52.95 0.5L52.95 0.5Q50.2 0.5 47.75-0.03 45.3-0.55 43.5-1.3 41.7-2.05 40.85-2.7L40.85-2.7 40.85-11.65Q43.25-10.3 46.9-9.13 50.55-7.95 55-7.95L55-7.95Q56.8-7.95 57.67-8.43 58.55-8.9 58.55-10.1L58.55-10.1Q58.55-11.4 56.57-12.28 54.6-13.15 50.35-14.45L50.35-14.45Q47.05-15.5 44.72-16.78 42.4-18.05 41.17-19.98 39.95-21.9 39.95-24.9L39.95-24.9Q39.95-28 41.55-30.5 43.15-33 46.55-34.45 49.95-35.9 55.25-35.9L55.25-35.9Q56.85-35.9 58.67-35.77 60.5-35.65 61.6-35.45L61.6-35.45 67.25-31.3 65.3-25.2 53.45-28.45Q51.4-28.45 50.42-27.6 49.45-26.75 49.45-25.55L49.45-25.55Q49.45-24.1 51.1-23.25 52.75-22.4 55.85-21.55L55.85-21.55Q60.75-20.2 63.45-18.55 66.15-16.9 67.25-14.83 68.35-12.75 68.35-10.15L68.35-10.15Q68.35-5.35 64.5-2.43 60.65 0.5 52.95 0.5Z" opacity="1" transform="matrix(1,0,0,1,0,0)" fill="#24af09" class="undefined-text-0" data-fill-palette-color="quaternary" id="text-0"></path></svg></g></svg></g></svg></g></svg></g><g></g></svg></g><defs></defs></svg><rect width="395.52" height="210.6402821321091" fill="none" stroke="none" visibility="hidden"></rect></g></svg></g></svg>