<?xml version="1.0" standalone="no"?>
<!DOCTYPE svg PUBLIC "-//W3C//DTD SVG 20010904//EN"
 "http://www.w3.org/TR/2001/REC-SVG-20010904/DTD/svg10.dtd">
<svg version="1.0" xmlns="http://www.w3.org/2000/svg"
 width="2000.000000pt" height="1500.000000pt" viewBox="0 0 2000.000000 1500.000000"
 preserveAspectRatio="xMidYMid meet">

<g transform="translate(0.000000,1500.000000) scale(0.100000,-0.100000)"
fill="#000000" stroke="none">
<path d="M15735 11484 c-154 -18 -238 -30 -410 -59 -184 -31 -227 -35 -540
-45 -597 -18 -948 -45 -2040 -155 -1121 -113 -1167 -117 -1430 -122 -137 -3
-551 0 -920 6 -368 6 -1056 16 -1528 23 -1871 26 -3010 -35 -4194 -227 -401
-65 -846 -161 -928 -199 -63 -30 -127 -47 -335 -86 -423 -80 -600 -149 -741
-289 -121 -121 -167 -248 -155 -426 8 -125 75 -396 147 -605 198 -569 223
-654 235 -823 8 -99 19 -114 59 -77 24 23 55 22 55 -2 0 -24 51 -123 77 -150
14 -15 60 -41 103 -58 43 -17 90 -44 105 -60 l28 -29 -26 -108 c-68 -276 -57
-483 48 -879 19 -73 35 -136 35 -142 0 -6 -64 -32 -142 -57 -151 -49 -218 -84
-268 -141 -34 -39 -90 -145 -90 -170 0 -49 -25 -149 -41 -165 -15 -15 -29 -17
-86 -12 -64 5 -71 4 -98 -20 -30 -25 -30 -26 -27 -114 3 -80 0 -99 -37 -216
-49 -152 -54 -229 -20 -308 20 -45 20 -53 8 -97 -23 -78 -16 -210 20 -377 23
-104 35 -192 40 -287 7 -138 7 -138 39 -171 41 -43 42 -82 2 -181 -16 -41 -32
-97 -36 -124 l-6 -50 98 -82 c375 -310 787 -467 1334 -509 74 -6 367 -13 650
-15 283 -3 571 -10 640 -16 253 -22 479 -68 667 -135 l97 -35 63 61 c86 83 98
79 98 -31 0 -71 3 -84 15 -81 64 17 68 15 132 -53 49 -53 67 -66 87 -64 40 5
71 60 71 125 0 73 12 94 49 87 36 -8 51 15 51 80 0 40 -3 47 -30 61 -37 19
-38 32 -2 75 51 60 74 29 111 -151 43 -200 76 -279 117 -279 12 0 15 6 11 23
-3 12 -9 49 -12 83 -6 49 -4 63 10 77 9 9 23 17 31 17 8 0 30 24 49 54 41 64
51 72 70 56 17 -14 51 -114 65 -190 5 -30 15 -67 21 -82 l11 -28 50 44 c62 57
102 70 192 63 53 -4 102 -17 191 -53 108 -43 128 -48 200 -49 75 0 84 2 135
35 77 49 132 48 259 -4 126 -51 170 -52 236 -2 58 45 82 43 115 -8 l25 -39
345 6 c190 4 428 12 530 18 298 19 807 16 981 -5 121 -14 163 -15 245 -7 444
49 1011 65 1959 57 1689 -15 2102 -7 2730 50 426 38 515 56 1172 238 208 57
415 114 461 126 96 26 114 43 180 175 156 313 232 814 232 1550 0 383 15 815
40 1165 25 348 36 627 52 1360 17 770 15 1070 -11 1407 -22 288 -40 435 -72
598 -83 416 -174 592 -435 845 -216 209 -462 331 -757 374 -94 14 -371 20
-462 10z m-2055 -1005 c215 -11 536 -44 575 -59 14 -5 229 -159 478 -342 248
-182 453 -332 455 -334 8 -5 -314 -994 -324 -994 -6 0 -447 120 -980 266
l-969 266 -110 -11 c-199 -20 -327 -72 -418 -171 -186 -201 -160 -480 60 -631
144 -99 404 -199 883 -338 579 -168 919 -302 1218 -480 171 -101 272 -179 407
-315 173 -173 265 -324 338 -551 59 -184 72 -280 71 -530 0 -242 -14 -335 -75
-519 -140 -419 -499 -783 -963 -975 -400 -166 -858 -242 -1465 -242 -335 0
-514 15 -791 67 -445 84 -903 248 -1158 415 l-52 34 0 732 0 733 83 -44 c267
-145 800 -347 1132 -430 319 -80 599 -115 975 -123 226 -4 292 -2 367 11 226
39 317 111 344 273 23 128 -18 225 -133 320 -109 89 -374 198 -903 368 -427
137 -548 179 -735 252 -206 81 -495 222 -620 304 -363 236 -565 530 -636 924
-22 126 -30 398 -14 537 46 422 252 812 559 1060 235 190 543 341 866 423 419
108 880 139 1535 104z m-7500 -1184 l0 -1115 1030 0 1030 0 0 1115 0 1115 735
0 735 0 0 -1540 0 -1539 40 -271 40 -271 0 -1094 0 -1095 -775 0 -775 0 0
1085 0 1085 -1030 0 -1030 0 0 -232 c0 -130 18 -593 40 -1043 22 -445 40 -829
40 -852 l0 -43 -775 0 -775 0 0 2243 0 2242 -41 414 -41 413 36 232 c21 127
40 239 42 249 5 16 49 17 740 17 l734 0 0 -1115z"/>
</g>
</svg>
